<svg width="34" height="34" viewBox="0 0 34 34" fill="none" xmlns="http://www.w3.org/2000/svg">
<rect width="34" height="34" rx="15" fill="#6B14A6"/>
<rect x="1" y="1" width="32" height="32" rx="14" stroke="#9924E9" stroke-opacity="0.1" stroke-width="2"/>
<path d="M14.489 12H11.2002C10.0801 12 9.51962 12 9.0918 12.218C8.71547 12.4097 8.40973 12.7155 8.21799 13.0918C8 13.5196 8 14.0801 8 15.2002V20.8002C8 21.9203 8 22.4796 8.21799 22.9074C8.40973 23.2837 8.71547 23.5905 9.0918 23.7822C9.5192 24 10.079 24 11.1969 24H22.8031C23.921 24 24.48 24 24.9074 23.7822C25.2837 23.5905 25.5905 23.2837 25.7822 22.9074C26 22.48 26 21.921 26 20.8031V15.1969C26 14.079 26 13.5192 25.7822 13.0918C25.5905 12.7155 25.2837 12.4097 24.9074 12.218C24.4796 12 23.9203 12 22.8002 12H19.5108M14.489 12H14.5508M14.489 12C14.5015 12 14.5147 12 14.5286 12L14.5508 12M14.489 12C14.3829 12 14.3234 11.9994 14.2764 11.9941C13.6888 11.9284 13.2858 11.3691 13.4092 10.7908C13.4207 10.737 13.4434 10.6689 13.4883 10.5341L13.4902 10.5284C13.5416 10.3744 13.5672 10.2974 13.5956 10.2295C13.8859 9.53389 14.5432 9.06083 15.2949 9.00541C15.3683 9 15.449 9 15.6113 9H18.3886C18.5509 9 18.6322 9 18.7057 9.00541C19.4574 9.06083 20.114 9.53389 20.4043 10.2295C20.4326 10.2974 20.4584 10.3743 20.5098 10.5283C20.556 10.667 20.5791 10.7364 20.5908 10.7909C20.7142 11.3692 20.3118 11.9284 19.7242 11.9941C19.6772 11.9994 19.6171 12 19.5108 12M14.5508 12H19.449M19.449 12H19.5108M19.449 12L19.4712 12C19.4851 12 19.4983 12 19.5108 12M17 21C15.3431 21 14 19.6569 14 18C14 16.3431 15.3431 15 17 15C18.6569 15 20 16.3431 20 18C20 19.6569 18.6569 21 17 21Z" stroke="white" stroke-width="1.7" stroke-linecap="round" stroke-linejoin="round"/>
</svg>
