<svg width="123" height="16" viewBox="0 0 123 16" fill="none" xmlns="http://www.w3.org/2000/svg">
<path d="M6.49 11.746C6.262 11.746 6.046 11.65 5.842 11.458C5.638 11.278 5.536 11.08 5.536 10.864C5.536 10.708 5.554 10.552 5.59 10.396C5.638 10.252 5.656 10.102 5.644 9.946C5.488 9.862 5.296 9.748 5.068 9.604C4.84 9.46 4.726 9.28 4.726 9.064C4.726 8.872 4.804 8.71 4.96 8.578C5.116 8.446 5.254 8.338 5.374 8.254H5.5V8.272H5.536C5.524 8.38 5.494 8.476 5.446 8.56C5.398 8.644 5.35 8.734 5.302 8.83C5.254 8.914 5.212 8.998 5.176 9.082C5.152 9.154 5.14 9.226 5.14 9.298C5.152 9.418 5.23 9.496 5.374 9.532C5.518 9.556 5.644 9.568 5.752 9.568C5.788 9.316 5.872 9.082 6.004 8.866C6.136 8.638 6.244 8.41 6.328 8.182C6.532 7.69 6.772 7.216 7.048 6.76C7.336 6.304 7.618 5.854 7.894 5.41C8.23 4.882 8.554 4.348 8.866 3.808C9.19 3.256 9.55 2.74 9.946 2.26C10.042 2.152 10.162 2.098 10.306 2.098C10.426 2.098 10.576 2.134 10.756 2.206C10.948 2.278 11.05 2.374 11.062 2.494C11.086 2.722 11.002 2.974 10.81 3.25C10.63 3.526 10.456 3.748 10.288 3.916H10.216L10.198 3.826C10.198 3.802 10.21 3.79 10.234 3.79C10.234 3.79 10.234 3.772 10.234 3.736H10.18L10.072 3.826C10.096 3.934 10.072 4.06 10 4.204C9.928 4.348 9.844 4.486 9.748 4.618C9.652 4.738 9.58 4.834 9.532 4.906C9.46 4.99 9.388 5.08 9.316 5.176C9.256 5.26 9.202 5.344 9.154 5.428C9.046 5.584 8.992 5.74 8.992 5.896H8.938C8.83 5.944 8.716 6.052 8.596 6.22C8.488 6.388 8.386 6.568 8.29 6.76C8.194 6.94 8.11 7.084 8.038 7.192C7.882 7.432 7.732 7.684 7.588 7.948C7.444 8.2 7.318 8.464 7.21 8.74C7.162 8.872 7.054 8.998 6.886 9.118C6.718 9.226 6.598 9.34 6.526 9.46H7.534C7.558 9.448 7.594 9.442 7.642 9.442V9.424C7.762 9.388 7.894 9.358 8.038 9.334C8.086 9.31 8.128 9.298 8.164 9.298C8.212 9.298 8.236 9.292 8.236 9.28C8.284 9.268 8.332 9.25 8.38 9.226C8.44 9.19 8.488 9.19 8.524 9.226L8.794 9.136L8.884 9.046V9.118C8.992 9.094 9.1 9.07 9.208 9.046C9.316 9.01 9.424 8.992 9.532 8.992C9.664 8.896 9.808 8.842 9.964 8.83C10.12 8.818 10.27 8.794 10.414 8.758C10.486 8.674 10.618 8.596 10.81 8.524C11.002 8.452 11.158 8.416 11.278 8.416H11.296L11.638 8.236C11.662 8.248 11.728 8.23 11.836 8.182C11.944 8.122 12.064 8.056 12.196 7.984L12.862 7.624C13.198 7.444 13.534 7.21 13.87 6.922C14.206 6.622 14.488 6.292 14.716 5.932C14.956 5.572 15.076 5.2 15.076 4.816C15.076 4.276 14.872 3.82 14.464 3.448C14.056 3.076 13.534 2.764 12.898 2.512C12.37 2.284 11.83 2.134 11.278 2.062C10.738 1.978 10.216 1.936 9.712 1.936C9.232 1.936 8.77 1.96 8.326 2.008C7.882 2.056 7.486 2.104 7.138 2.152C6.946 2.176 6.736 2.206 6.508 2.242C6.28 2.278 6.082 2.32 5.914 2.368C5.782 2.404 5.65 2.458 5.518 2.53C5.398 2.59 5.272 2.638 5.14 2.674C4.54 2.89 3.928 3.124 3.304 3.376C2.692 3.616 2.134 3.952 1.63 4.384C1.582 4.432 1.51 4.498 1.414 4.582C1.33 4.654 1.288 4.732 1.288 4.816C1.288 4.888 1.342 4.942 1.45 4.978C1.57 5.014 1.696 5.038 1.828 5.05C1.96 5.05 2.05 5.05 2.098 5.05L2.08 5.014H1.918L2.26 4.978C2.272 4.978 2.278 4.984 2.278 4.996C2.278 4.996 2.284 4.996 2.296 4.996C2.476 4.972 2.65 4.942 2.818 4.906C2.986 4.87 3.148 4.834 3.304 4.798V4.762H3.52C3.52 4.786 3.52 4.816 3.52 4.852C3.532 4.888 3.514 4.918 3.466 4.942C3.226 5.05 2.914 5.164 2.53 5.284C2.146 5.404 1.81 5.464 1.522 5.464C1.258 5.464 0.988 5.38 0.712 5.212C0.436 5.032 0.298 4.804 0.298 4.528C0.298 4.3 0.436 4.072 0.712 3.844C0.976 3.604 1.312 3.376 1.72 3.16C2.128 2.944 2.542 2.752 2.962 2.584C3.394 2.404 3.772 2.26 4.096 2.152C4.42 2.032 4.624 1.96 4.708 1.936C4.864 1.888 5.014 1.858 5.158 1.846C5.314 1.822 5.47 1.798 5.626 1.774C5.914 1.726 6.196 1.678 6.472 1.63C6.76 1.57 7.048 1.54 7.336 1.54V1.522H7.876L8.02 1.45C8.332 1.462 8.644 1.468 8.956 1.468C9.28 1.456 9.592 1.462 9.892 1.486C10.648 1.534 11.392 1.654 12.124 1.846C12.868 2.038 13.546 2.338 14.158 2.746C14.77 3.142 15.262 3.688 15.634 4.384C15.73 4.54 15.79 4.702 15.814 4.87C15.85 5.038 15.868 5.206 15.868 5.374C15.868 5.95 15.694 6.46 15.346 6.904C14.998 7.336 14.554 7.714 14.014 8.038C13.474 8.362 12.91 8.644 12.322 8.884C11.734 9.112 11.2 9.31 10.72 9.478C10.492 9.55 10.288 9.634 10.108 9.73C9.928 9.826 9.712 9.874 9.46 9.874H9.406L9.28 9.91C9.232 9.922 9.184 9.934 9.136 9.946C9.088 9.958 9.058 9.97 9.046 9.982C8.878 10.018 8.71 10.036 8.542 10.036C8.374 10.048 8.206 10.054 8.038 10.054H7.372C7.264 10.054 7.15 10.048 7.03 10.036C6.922 10.024 6.814 10.018 6.706 10.018C6.658 10.018 6.586 10.018 6.49 10.018C6.406 10.03 6.352 10.048 6.328 10.072C6.244 10.144 6.196 10.27 6.184 10.45C6.184 10.63 6.19 10.768 6.202 10.864C6.214 10.984 6.244 11.128 6.292 11.296C6.352 11.464 6.478 11.548 6.67 11.548L6.688 11.71C6.64 11.722 6.598 11.728 6.562 11.728C6.538 11.74 6.514 11.746 6.49 11.746ZM15.7954 10.378C15.7114 10.378 15.6214 10.354 15.5254 10.306C15.4294 10.258 15.3634 10.192 15.3274 10.108L15.3454 10.018C15.4174 9.646 15.5254 9.286 15.6694 8.938C15.8134 8.59 15.9454 8.242 16.0654 7.894C16.1614 7.63 16.2694 7.306 16.3894 6.922C16.5094 6.538 16.5694 6.196 16.5694 5.896C16.5694 5.86 16.5694 5.824 16.5694 5.788C16.5694 5.74 16.5634 5.698 16.5514 5.662C16.4674 5.662 16.3894 5.674 16.3174 5.698C16.2454 5.71 16.1674 5.716 16.0834 5.716H16.0654C16.0054 5.716 15.9754 5.68 15.9754 5.608C15.9754 5.572 15.9994 5.53 16.0474 5.482C16.0954 5.434 16.1674 5.41 16.2634 5.41C16.2994 5.422 16.4014 5.428 16.5694 5.428C16.6654 5.428 16.7974 5.434 16.9654 5.446C17.1334 5.446 17.2894 5.464 17.4334 5.5C17.5894 5.536 17.6794 5.614 17.7034 5.734C17.7154 5.806 17.6794 5.944 17.5954 6.148C17.5234 6.34 17.4394 6.55 17.3434 6.778C17.2354 7.006 17.1334 7.228 17.0374 7.444C17.0014 7.54 16.9654 7.636 16.9294 7.732C16.8934 7.816 16.8754 7.888 16.8754 7.948V7.966L16.9114 7.912C16.9834 7.804 17.0554 7.702 17.1274 7.606C17.2114 7.51 17.2774 7.42 17.3254 7.336C17.3854 7.264 17.4754 7.156 17.5954 7.012C17.7274 6.856 17.8594 6.694 17.9914 6.526C18.1354 6.358 18.2734 6.19 18.4054 6.022C18.5494 5.854 18.6754 5.728 18.7834 5.644C18.8074 5.62 18.8314 5.59 18.8554 5.554C18.8914 5.518 18.9274 5.494 18.9634 5.482C18.9994 5.47 19.0474 5.464 19.1074 5.464C19.1794 5.452 19.2814 5.446 19.4134 5.446C19.4494 5.446 19.4854 5.452 19.5214 5.464C19.5574 5.464 19.5874 5.464 19.6114 5.464C19.6594 5.464 19.7614 5.5 19.9174 5.572C20.0734 5.632 20.2294 5.704 20.3854 5.788C20.5414 5.872 20.6194 5.944 20.6194 6.004C20.6314 6.124 20.5894 6.214 20.4934 6.274C20.4094 6.322 20.3374 6.382 20.2774 6.454C20.1934 6.562 20.1094 6.682 20.0254 6.814C19.9534 6.934 19.8934 7.06 19.8454 7.192L19.8094 7.3C19.7614 7.348 19.7194 7.372 19.6834 7.372C19.6114 7.372 19.5874 7.33 19.6114 7.246C19.6114 7.126 19.6234 7.018 19.6474 6.922C19.6714 6.814 19.6894 6.718 19.7014 6.634C19.7254 6.538 19.7374 6.448 19.7374 6.364C19.7494 6.268 19.7494 6.166 19.7374 6.058C19.7374 6.022 19.7254 6.004 19.7014 6.004C19.5934 6.004 19.4914 6.052 19.3954 6.148C19.2994 6.244 19.2214 6.328 19.1614 6.4L19.0534 6.472C18.9934 6.556 18.8914 6.652 18.7474 6.76L18.4054 7.012C18.3214 7.072 18.2014 7.192 18.0454 7.372C17.8894 7.54 17.7694 7.672 17.6854 7.768C17.6854 7.78 17.6434 7.786 17.5594 7.786H17.5414L17.5234 7.804V7.84C17.5474 7.876 17.5354 7.918 17.4874 7.966C17.4154 8.062 17.2894 8.224 17.1094 8.452C16.9294 8.68 16.7554 8.908 16.5874 9.136C16.4194 9.352 16.3234 9.508 16.2994 9.604C16.2514 9.736 16.2094 9.856 16.1734 9.964C16.1494 10.072 16.1434 10.204 16.1554 10.36C16.0714 10.348 16.0114 10.342 15.9754 10.342C15.9514 10.354 15.9334 10.36 15.9214 10.36C15.8854 10.372 15.8434 10.378 15.7954 10.378ZM21.4332 10.126C21.2172 10.126 20.9832 10.084 20.7312 10C20.4912 9.916 20.2812 9.79 20.1012 9.622C19.9332 9.454 19.8372 9.25 19.8132 9.01C19.8132 8.95 19.8132 8.89 19.8132 8.83C19.8252 8.77 19.8252 8.716 19.8132 8.668C19.8132 8.632 19.7772 8.596 19.7052 8.56L19.6512 8.506C19.6032 8.482 19.5552 8.452 19.5072 8.416C19.4592 8.368 19.4352 8.314 19.4352 8.254C19.4712 8.242 19.5012 8.236 19.5252 8.236C19.5852 8.236 19.6392 8.242 19.6872 8.254C19.7472 8.266 19.8012 8.272 19.8492 8.272C19.8372 8.272 19.8432 8.248 19.8672 8.2C19.8672 8.176 19.8732 8.152 19.8852 8.128C19.8972 8.092 19.9092 8.068 19.9212 8.056C19.9332 8.056 19.9512 8.014 19.9752 7.93C19.9992 7.834 20.0172 7.78 20.0292 7.768C20.1972 7.252 20.4252 6.814 20.7132 6.454C21.0132 6.082 21.4212 5.806 21.9372 5.626C21.9852 5.614 22.0272 5.608 22.0632 5.608C22.1112 5.596 22.1592 5.59 22.2072 5.59C22.3032 5.59 22.4292 5.626 22.5852 5.698C22.7412 5.758 22.8792 5.842 22.9992 5.95C23.1312 6.046 23.2032 6.148 23.2152 6.256C23.2152 6.304 23.2152 6.346 23.2152 6.382C23.2272 6.418 23.2332 6.46 23.2332 6.508C23.2332 6.58 23.2152 6.664 23.1792 6.76L23.0712 6.814C23.0472 6.862 23.0232 6.898 22.9992 6.922L22.8912 7.048C22.7952 7.144 22.7592 7.21 22.7832 7.246L22.7472 7.264C22.7472 7.264 22.7472 7.27 22.7472 7.282C22.7472 7.282 22.7412 7.282 22.7292 7.282L22.7472 7.264L22.7292 7.282V7.3L22.6392 7.318C22.5912 7.354 22.5492 7.396 22.5132 7.444C22.4772 7.48 22.4412 7.522 22.4052 7.57C22.2252 7.762 21.9912 7.93 21.7032 8.074C21.4152 8.206 21.1512 8.326 20.9112 8.434C20.8752 8.446 20.8212 8.464 20.7492 8.488C20.6892 8.5 20.6472 8.524 20.6232 8.56C20.5752 8.62 20.5452 8.698 20.5332 8.794C20.5212 8.89 20.5152 8.98 20.5152 9.064C20.5392 9.208 20.5752 9.346 20.6232 9.478C20.6832 9.61 20.8032 9.676 20.9832 9.676H21.1452C21.2052 9.676 21.2652 9.67 21.3252 9.658C21.3972 9.646 21.4692 9.634 21.5412 9.622L21.6672 9.55L21.6852 9.568C21.7572 9.544 21.8832 9.49 22.0632 9.406C22.2432 9.322 22.4172 9.238 22.5852 9.154C22.7532 9.058 22.8552 8.992 22.8912 8.956L22.9092 8.938L22.9272 8.902L22.9812 8.848C23.1972 8.692 23.4072 8.56 23.6112 8.452C23.8152 8.332 24.0132 8.176 24.2052 7.984L24.2412 8.02H24.2952C24.2832 8.104 24.2532 8.17 24.2052 8.218C24.1572 8.254 24.1032 8.302 24.0432 8.362L23.9892 8.452C23.8452 8.68 23.6232 8.908 23.3232 9.136C23.0352 9.364 22.7712 9.556 22.5312 9.712C22.4472 9.76 22.3632 9.82 22.2792 9.892C22.1952 9.952 22.0992 10 21.9912 10.036C21.7872 10.096 21.6012 10.126 21.4332 10.126ZM20.8572 7.894C20.9292 7.894 20.9772 7.894 21.0012 7.894C21.0372 7.882 21.0852 7.87 21.1452 7.858C21.3852 7.726 21.6072 7.57 21.8112 7.39C22.0272 7.21 22.2312 7.03 22.4232 6.85C22.4472 6.766 22.5072 6.694 22.6032 6.634L22.6752 6.58C22.6992 6.556 22.7172 6.532 22.7292 6.508C22.7532 6.484 22.7652 6.46 22.7652 6.436C22.7772 6.424 22.7712 6.382 22.7472 6.31L22.7292 6.22V6.184C22.6932 6.172 22.6452 6.166 22.5852 6.166C22.5012 6.202 22.4172 6.256 22.3332 6.328C22.2492 6.4 22.1592 6.442 22.0632 6.454C22.0152 6.526 21.9132 6.622 21.7572 6.742C21.6732 6.814 21.5892 6.886 21.5052 6.958C21.4332 7.018 21.3852 7.06 21.3612 7.084C21.2772 7.168 21.1752 7.3 21.0552 7.48C20.9352 7.648 20.8692 7.786 20.8572 7.894ZM29.393 10.18C29.273 10.18 29.135 10.15 28.979 10.09C28.823 10.042 28.697 9.976 28.601 9.892C28.313 9.628 28.145 9.328 28.097 8.992C28.049 8.644 28.013 8.29 27.989 7.93C27.941 7.99 27.875 8.062 27.791 8.146C27.719 8.218 27.653 8.284 27.593 8.344C27.557 8.38 27.521 8.428 27.485 8.488C27.449 8.536 27.413 8.584 27.377 8.632C27.293 8.716 27.215 8.782 27.143 8.83C27.071 8.866 27.005 8.914 26.945 8.974C26.921 8.998 26.873 9.058 26.801 9.154C26.777 9.202 26.741 9.244 26.693 9.28C26.645 9.304 26.603 9.34 26.567 9.388C26.483 9.4 26.411 9.442 26.351 9.514C26.303 9.574 26.249 9.64 26.189 9.712C26.069 9.76 25.937 9.826 25.793 9.91C25.661 9.982 25.529 10.018 25.397 10.018C25.229 10.018 25.043 9.976 24.839 9.892C24.647 9.808 24.473 9.694 24.317 9.55C24.161 9.394 24.071 9.226 24.047 9.046H24.029V8.722C24.029 8.53 24.053 8.404 24.101 8.344C24.125 8.308 24.143 8.266 24.155 8.218C24.167 8.158 24.179 8.11 24.191 8.074L24.443 7.714C24.479 7.654 24.569 7.546 24.713 7.39C24.869 7.234 25.031 7.078 25.199 6.922C25.367 6.766 25.487 6.658 25.559 6.598C25.655 6.514 25.799 6.418 25.991 6.31C26.183 6.202 26.375 6.094 26.567 5.986C26.771 5.878 26.933 5.794 27.053 5.734L27.125 5.716C27.185 5.668 27.281 5.62 27.413 5.572C27.557 5.512 27.659 5.476 27.719 5.464C27.791 5.44 27.905 5.428 28.061 5.428C28.217 5.416 28.337 5.404 28.421 5.392C28.493 5.392 28.553 5.38 28.601 5.356L28.979 5.464C29.111 5.476 29.267 5.536 29.447 5.644C29.627 5.752 29.723 5.89 29.735 6.058C29.759 6.142 29.753 6.208 29.717 6.256L29.555 6.166C29.471 6.034 29.351 5.956 29.195 5.932C29.051 5.896 28.901 5.878 28.745 5.878C28.409 5.878 28.049 5.962 27.665 6.13C27.281 6.286 26.915 6.496 26.567 6.76C26.219 7.012 25.907 7.288 25.631 7.588C25.367 7.888 25.175 8.176 25.055 8.452C25.043 8.488 25.031 8.524 25.019 8.56C25.019 8.596 25.013 8.626 25.001 8.65C24.965 8.77 24.929 8.884 24.893 8.992C24.869 9.1 24.863 9.22 24.875 9.352C24.875 9.436 24.887 9.484 24.911 9.496C24.935 9.508 24.983 9.55 25.055 9.622L25.199 9.676L25.325 9.622L25.469 9.568C25.565 9.532 25.643 9.484 25.703 9.424C25.751 9.4 25.793 9.388 25.829 9.388C25.865 9.376 25.883 9.364 25.883 9.352C25.967 9.328 26.009 9.298 26.009 9.262C26.021 9.214 26.057 9.166 26.117 9.118C26.297 8.95 26.471 8.788 26.639 8.632C26.819 8.464 26.987 8.29 27.143 8.11C27.227 8.014 27.329 7.906 27.449 7.786C27.581 7.666 27.701 7.546 27.809 7.426C27.845 7.39 27.875 7.354 27.899 7.318C27.935 7.27 27.965 7.228 27.989 7.192C28.049 7.096 28.139 6.964 28.259 6.796C28.379 6.616 28.517 6.526 28.673 6.526C28.697 6.514 28.733 6.508 28.781 6.508C28.901 6.508 28.997 6.556 29.069 6.652C29.141 6.736 29.177 6.826 29.177 6.922C29.177 7.042 29.153 7.156 29.105 7.264C29.057 7.36 29.021 7.462 28.997 7.57C28.949 7.846 28.925 8.116 28.925 8.38C28.925 8.464 28.925 8.548 28.925 8.632C28.925 8.716 28.931 8.806 28.943 8.902C28.979 9.154 29.105 9.382 29.321 9.586L29.393 9.604C29.561 9.508 29.675 9.412 29.735 9.316C29.807 9.22 29.903 9.1 30.023 8.956C30.023 8.956 30.035 8.95 30.059 8.938C30.083 8.914 30.101 8.902 30.113 8.902C30.161 8.902 30.185 8.926 30.185 8.974V8.992C30.185 9.04 30.179 9.088 30.167 9.136C30.155 9.172 30.143 9.22 30.131 9.28C30.119 9.424 30.047 9.61 29.915 9.838C29.795 10.066 29.621 10.18 29.393 10.18ZM36.8937 11.008C36.8217 11.008 36.7557 11.002 36.6957 10.99C36.6357 10.978 36.5757 10.966 36.5157 10.954L36.4617 10.99C36.2337 10.822 36.0477 10.654 35.9037 10.486C35.7597 10.33 35.6757 10.132 35.6517 9.892C35.6397 9.724 35.6217 9.562 35.5977 9.406C35.5737 9.238 35.5617 9.07 35.5617 8.902C35.5617 8.746 35.5797 8.59 35.6157 8.434C35.6277 8.374 35.6337 8.308 35.6337 8.236C35.6337 8.164 35.6337 8.098 35.6337 8.038C35.6337 7.966 35.6397 7.882 35.6517 7.786C35.6637 7.69 35.6877 7.576 35.7237 7.444C35.7357 7.42 35.7537 7.366 35.7777 7.282C35.8017 7.186 35.8077 7.126 35.7957 7.102V7.084C35.7237 7.18 35.6457 7.288 35.5617 7.408C35.4897 7.516 35.4297 7.624 35.3817 7.732C35.3457 7.804 35.2557 7.954 35.1117 8.182C34.9797 8.41 34.8417 8.638 34.6977 8.866C34.5537 9.082 34.4517 9.214 34.3917 9.262C34.2717 9.346 34.1457 9.388 34.0137 9.388C33.9297 9.388 33.8157 9.358 33.6717 9.298C33.5277 9.238 33.4017 9.166 33.2937 9.082C33.1857 8.986 33.1317 8.884 33.1317 8.776C33.1317 8.704 33.1677 8.572 33.2397 8.38C33.3237 8.188 33.3717 8.056 33.3837 7.984C33.4557 7.804 33.5157 7.63 33.5637 7.462C33.6237 7.282 33.6477 7.138 33.6357 7.03C33.6357 6.982 33.6297 6.958 33.6177 6.958C33.5457 6.958 33.4437 7.018 33.3117 7.138C33.1917 7.246 33.1017 7.336 33.0417 7.408C33.0417 7.42 33.0357 7.438 33.0237 7.462C33.0117 7.474 32.9997 7.492 32.9877 7.516L32.9337 7.588C32.9337 7.6 32.9277 7.612 32.9157 7.624C32.8677 7.672 32.7717 7.768 32.6277 7.912C32.4837 8.056 32.3997 8.158 32.3757 8.218C32.3517 8.266 32.3397 8.29 32.3397 8.29C32.3157 8.326 32.2617 8.398 32.1777 8.506C32.0937 8.614 32.0037 8.722 31.9077 8.83C31.8117 8.938 31.7397 9.01 31.6917 9.046C31.6557 9.13 31.6077 9.208 31.5477 9.28C31.4877 9.34 31.4277 9.406 31.3677 9.478C31.2957 9.55 31.2117 9.688 31.1157 9.892C31.0317 10.096 30.9717 10.246 30.9357 10.342C30.9237 10.39 30.8697 10.426 30.7737 10.45C30.6777 10.474 30.6117 10.486 30.5757 10.486C30.5277 10.486 30.4557 10.456 30.3597 10.396C30.2757 10.348 30.2277 10.294 30.2157 10.234C30.2157 10.198 30.2397 10.102 30.2877 9.946C30.3357 9.778 30.3897 9.592 30.4497 9.388C30.5217 9.172 30.5877 8.98 30.6477 8.812C30.7197 8.632 30.7677 8.524 30.7917 8.488C30.7917 8.452 30.8097 8.416 30.8457 8.38C30.8577 8.308 30.8817 8.194 30.9177 8.038C30.9657 7.882 31.0137 7.732 31.0617 7.588C31.1217 7.432 31.1577 7.336 31.1697 7.3C31.2777 7.096 31.3917 6.856 31.5117 6.58C31.6317 6.304 31.7337 6.028 31.8177 5.752C31.9017 5.464 31.9377 5.218 31.9257 5.014C31.8537 5.014 31.7817 5.026 31.7097 5.05C31.6497 5.062 31.5837 5.068 31.5117 5.068C31.3557 5.02 31.3197 4.954 31.4037 4.87C31.4517 4.822 31.5477 4.798 31.6917 4.798C31.7877 4.822 31.9317 4.846 32.1237 4.87C32.3157 4.882 32.4957 4.918 32.6637 4.978C32.8437 5.026 32.9397 5.122 32.9517 5.266C32.9637 5.326 32.9157 5.476 32.8077 5.716C32.7117 5.944 32.5977 6.19 32.4657 6.454C32.4057 6.586 32.3457 6.718 32.2857 6.85C32.2257 6.982 32.1657 7.114 32.1057 7.246C32.0577 7.366 32.0097 7.474 31.9617 7.57C31.9257 7.666 31.8957 7.744 31.8717 7.804C31.8477 7.864 31.8117 7.918 31.7637 7.966C31.7277 8.002 31.7157 8.062 31.7277 8.146C31.6797 8.182 31.6617 8.224 31.6737 8.272C31.7337 8.188 31.8177 8.08 31.9257 7.948C32.0457 7.804 32.1597 7.672 32.2677 7.552C32.3757 7.42 32.4477 7.336 32.4837 7.3H32.5197C32.7117 7.096 32.9037 6.898 33.0957 6.706C33.2877 6.514 33.4977 6.352 33.7257 6.22L33.7617 6.184C33.7737 6.184 33.7857 6.166 33.7977 6.13H33.9057L33.9597 6.112C33.9837 6.112 34.0017 6.112 34.0137 6.112C34.0257 6.1 34.0437 6.094 34.0677 6.094C34.2237 6.094 34.3737 6.154 34.5177 6.274C34.6737 6.394 34.7577 6.532 34.7697 6.688C34.7937 6.88 34.7697 7.066 34.6977 7.246C34.6257 7.414 34.5537 7.582 34.4817 7.75C34.4337 7.846 34.3917 7.948 34.3557 8.056C34.3197 8.152 34.2837 8.248 34.2477 8.344C34.2357 8.392 34.2057 8.47 34.1577 8.578C34.1097 8.674 34.0857 8.746 34.0857 8.794C34.1457 8.77 34.1817 8.746 34.1937 8.722C34.2177 8.686 34.2417 8.644 34.2657 8.596C34.2777 8.572 34.2897 8.548 34.3017 8.524C34.3137 8.5 34.3257 8.482 34.3377 8.47C34.4577 8.314 34.5717 8.164 34.6797 8.02C34.7997 7.864 34.9197 7.708 35.0397 7.552C35.0757 7.492 35.1117 7.444 35.1477 7.408C35.1957 7.372 35.2377 7.33 35.2737 7.282C35.3457 7.186 35.4177 7.078 35.4897 6.958C35.5617 6.826 35.6517 6.736 35.7597 6.688C35.8077 6.664 35.8557 6.652 35.9037 6.652C35.9637 6.64 36.0177 6.634 36.0657 6.634C36.1377 6.634 36.2397 6.646 36.3717 6.67C36.5037 6.682 36.6297 6.712 36.7497 6.76C36.8697 6.796 36.9297 6.856 36.9297 6.94C36.9537 7.132 36.9237 7.306 36.8397 7.462C36.7557 7.618 36.6957 7.78 36.6597 7.948C36.6477 8.02 36.6177 8.176 36.5697 8.416C36.5337 8.656 36.5037 8.896 36.4797 9.136C36.4677 9.376 36.4677 9.532 36.4797 9.604C36.4917 9.616 36.4977 9.628 36.4977 9.64C36.5097 9.64 36.5217 9.652 36.5337 9.676C36.5217 9.712 36.5157 9.778 36.5157 9.874C36.5037 9.91 36.4917 9.952 36.4797 10C36.4677 10.036 36.4617 10.078 36.4617 10.126C36.4857 10.234 36.5037 10.36 36.5157 10.504C36.5277 10.66 36.6057 10.75 36.7497 10.774V10.738L36.8037 10.774C36.9117 10.714 37.0317 10.6 37.1637 10.432C37.3077 10.276 37.3737 10.156 37.3617 10.072H37.4337C37.4577 10.072 37.4697 10.084 37.4697 10.108V10.144L37.3977 10.756C37.2657 10.924 37.0977 11.008 36.8937 11.008ZM39.1319 10.342C38.7839 10.342 38.5139 10.264 38.3219 10.108C38.1419 9.964 38.0159 9.778 37.9439 9.55C37.8719 9.31 37.8239 9.064 37.7999 8.812C37.7879 8.68 37.7339 8.59 37.6379 8.542C37.6019 8.518 37.5599 8.5 37.5119 8.488C37.4759 8.464 37.4579 8.428 37.4579 8.38C37.5059 8.284 37.5779 8.212 37.6739 8.164C37.7699 8.104 37.8299 8.068 37.8539 8.056C37.8539 8.044 37.8539 8.032 37.8539 8.02C37.8659 7.996 37.8719 7.972 37.8719 7.948L37.9619 7.678L38.0879 7.21C38.1239 7.078 38.1539 6.94 38.1779 6.796C38.2139 6.64 38.2559 6.484 38.3039 6.328C38.3519 6.16 38.4059 5.986 38.4659 5.806C38.5259 5.626 38.5979 5.434 38.6819 5.23C38.7779 5.206 38.8259 5.182 38.8259 5.158C38.8379 5.122 38.8319 5.068 38.8079 4.996C38.8079 4.984 38.8019 4.972 38.7899 4.96C38.7899 4.948 38.7899 4.936 38.7899 4.924C38.7899 4.852 38.8139 4.774 38.8619 4.69C38.9219 4.606 38.9759 4.522 39.0239 4.438C39.0839 4.342 39.1439 4.258 39.2039 4.186C39.2639 4.102 39.2999 4.054 39.3119 4.042C39.6239 3.622 39.9479 3.226 40.2839 2.854C40.6319 2.482 41.0459 2.164 41.5259 1.9C41.5859 1.876 41.6339 1.852 41.6699 1.828C41.7179 1.792 41.7719 1.768 41.8319 1.756L41.8139 1.738C41.8379 1.738 41.8619 1.738 41.8859 1.738C41.9099 1.726 41.9339 1.72 41.9579 1.72C42.0539 1.72 42.2099 1.756 42.4259 1.828C42.6419 1.9 42.8399 1.99 43.0199 2.098C43.2119 2.206 43.3079 2.326 43.3079 2.458C43.3079 2.59 43.2359 2.788 43.0919 3.052C42.9479 3.304 42.7679 3.586 42.5519 3.898C42.3359 4.198 42.1079 4.498 41.8679 4.798C41.6399 5.098 41.4239 5.362 41.2199 5.59C41.0279 5.818 40.8839 5.98 40.7879 6.076C40.7399 6.124 40.6919 6.166 40.6439 6.202C40.5959 6.238 40.5479 6.28 40.4999 6.328C40.4039 6.424 40.3079 6.526 40.2119 6.634C40.1279 6.742 40.0319 6.844 39.9239 6.94C39.7679 7.084 39.5699 7.246 39.3299 7.426C39.1019 7.594 38.9099 7.75 38.7539 7.894C38.7059 7.942 38.6699 7.984 38.6459 8.02C38.6339 8.056 38.6099 8.098 38.5739 8.146C38.5259 8.206 38.4899 8.332 38.4659 8.524C38.4539 8.704 38.4539 8.842 38.4659 8.938C38.4779 9.046 38.5079 9.184 38.5559 9.352C38.6039 9.508 38.6759 9.652 38.7719 9.784C38.8679 9.916 38.9879 9.982 39.1319 9.982C39.2039 9.982 39.2639 9.97 39.3119 9.946C39.3719 9.91 39.4319 9.88 39.4919 9.856C39.8399 9.664 40.1339 9.466 40.3739 9.262C40.6259 9.046 40.8839 8.794 41.1479 8.506C41.2439 8.41 41.3339 8.314 41.4179 8.218C41.5139 8.11 41.6099 8.008 41.7059 7.912C41.7659 7.864 41.8259 7.81 41.8859 7.75C41.9579 7.678 42.0359 7.648 42.1199 7.66C42.1079 7.804 42.0599 7.906 41.9759 7.966C41.9039 8.014 41.8379 8.086 41.7779 8.182C41.7179 8.29 41.6579 8.392 41.5979 8.488C41.5379 8.584 41.4839 8.692 41.4359 8.812C41.4119 8.86 41.3759 8.908 41.3279 8.956C41.2799 9.004 41.2379 9.052 41.2019 9.1C41.0099 9.328 40.8059 9.538 40.5899 9.73C40.3739 9.91 40.1219 10.054 39.8339 10.162C39.7139 10.21 39.5999 10.252 39.4919 10.288C39.3839 10.324 39.2639 10.342 39.1319 10.342ZM38.4839 7.534H38.5019C39.2219 6.874 39.9179 6.19 40.5899 5.482C41.2619 4.774 41.8379 4.012 42.3179 3.196C42.3419 3.16 42.3899 3.07 42.4619 2.926C42.5339 2.782 42.5939 2.638 42.6419 2.494C42.7019 2.35 42.7019 2.26 42.6419 2.224C42.5099 2.272 42.3839 2.338 42.2639 2.422C42.1559 2.506 42.0479 2.59 41.9399 2.674C41.9039 2.698 41.8619 2.722 41.8139 2.746C41.7659 2.77 41.7299 2.8 41.7059 2.836C41.6099 2.932 41.5139 3.028 41.4179 3.124C41.3219 3.22 41.2259 3.316 41.1299 3.412C40.9979 3.544 40.8719 3.688 40.7519 3.844C40.6439 4 40.5299 4.156 40.4099 4.312C40.1339 4.672 39.9059 4.99 39.7259 5.266C39.5459 5.53 39.3419 5.854 39.1139 6.238C39.0779 6.31 39.0119 6.436 38.9159 6.616C38.8199 6.796 38.7299 6.976 38.6459 7.156C38.5619 7.324 38.5079 7.45 38.4839 7.534ZM44.1155 5.626C43.9955 5.626 43.8515 5.614 43.6835 5.59C43.5155 5.554 43.4255 5.446 43.4135 5.266C43.4135 5.242 43.4555 5.182 43.5395 5.086C43.6355 4.99 43.7315 4.894 43.8275 4.798C43.9355 4.702 44.0015 4.642 44.0255 4.618C44.0615 4.594 44.1455 4.528 44.2775 4.42C44.4215 4.312 44.5175 4.294 44.5655 4.366C44.5775 4.378 44.5835 4.462 44.5835 4.618V4.87C44.5835 4.894 44.5715 4.918 44.5475 4.942C44.5355 4.942 44.5055 4.954 44.4575 4.978C44.4215 4.99 44.4035 5.002 44.4035 5.014L44.4215 5.032C44.4455 5.044 44.4635 5.068 44.4755 5.104C44.4995 5.14 44.5055 5.17 44.4935 5.194C44.4455 5.278 44.3855 5.374 44.3135 5.482C44.2415 5.578 44.1755 5.626 44.1155 5.626ZM42.4415 10.27C42.3935 10.27 42.2915 10.252 42.1355 10.216C41.9915 10.18 41.8955 10.15 41.8475 10.126C41.7275 10.042 41.6435 9.97 41.5955 9.91C41.5475 9.85 41.5235 9.724 41.5235 9.532C41.5235 9.184 41.6015 8.842 41.7575 8.506C41.9255 8.158 42.0755 7.828 42.2075 7.516C42.2315 7.492 42.2315 7.474 42.2075 7.462V7.426C42.1715 7.306 42.2015 7.168 42.2975 7.012C42.3935 6.844 42.5075 6.688 42.6395 6.544C42.7715 6.4 42.8735 6.304 42.9455 6.256C43.0055 6.256 43.1135 6.268 43.2695 6.292C43.4255 6.304 43.5755 6.328 43.7195 6.364C43.8635 6.4 43.9355 6.46 43.9355 6.544C43.9355 6.556 43.9175 6.586 43.8815 6.634C43.8455 6.682 43.8035 6.736 43.7555 6.796L43.6115 6.958C43.5635 7.006 43.5395 7.036 43.5395 7.048C43.4315 7.24 43.2875 7.474 43.1075 7.75C42.9275 8.026 42.7595 8.308 42.6035 8.596C42.4955 8.788 42.4055 8.974 42.3335 9.154C42.2735 9.322 42.2435 9.472 42.2435 9.604C42.2435 9.712 42.2675 9.79 42.3155 9.838C42.4475 9.814 42.5855 9.73 42.7295 9.586C42.8855 9.442 43.0115 9.31 43.1075 9.19H43.1975C43.1975 9.31 43.1555 9.412 43.0715 9.496L43.0175 9.55C42.9575 9.658 42.8795 9.808 42.7835 10C42.6995 10.18 42.5855 10.27 42.4415 10.27ZM44.4855 15.04C44.2335 15.04 43.9995 14.968 43.7835 14.824C43.5555 14.68 43.3455 14.53 43.1535 14.374C43.0695 14.302 43.0095 14.2 42.9735 14.068C42.9255 13.936 42.8955 13.828 42.8835 13.744C42.8715 13.684 42.8595 13.618 42.8475 13.546C42.8355 13.474 42.8235 13.402 42.8115 13.33C42.8115 13.306 42.8115 13.276 42.8115 13.24C42.7995 13.216 42.7935 13.186 42.7935 13.15C42.7935 13.042 42.8115 12.934 42.8475 12.826L42.8655 12.754C42.8895 12.682 42.9015 12.64 42.9015 12.628C42.9015 12.604 42.8955 12.58 42.8835 12.556C42.8715 12.532 42.8595 12.496 42.8475 12.448C42.8835 12.4 42.9075 12.34 42.9195 12.268C42.9315 12.208 42.9435 12.154 42.9555 12.106C42.9795 12.022 42.9975 11.938 43.0095 11.854C43.0095 11.782 43.0155 11.704 43.0275 11.62C43.0515 11.536 43.0875 11.452 43.1355 11.368C43.1715 11.296 43.1955 11.218 43.2075 11.134C43.2195 11.074 43.2315 11.014 43.2435 10.954C43.2435 10.906 43.2495 10.858 43.2615 10.81C43.3335 10.642 43.3875 10.486 43.4235 10.342C43.4475 10.198 43.4895 10.042 43.5495 9.874L43.4955 9.82C43.3755 9.736 43.3155 9.61 43.3155 9.442C43.3155 9.274 43.4115 9.148 43.6035 9.064C43.7835 8.98 43.9335 8.914 44.0535 8.866C44.1615 8.83 44.2335 8.794 44.2695 8.758C44.2815 8.758 44.3115 8.68 44.3595 8.524C44.4075 8.356 44.4315 8.254 44.4315 8.218C44.4675 8.218 44.4915 8.194 44.5035 8.146C44.5275 8.086 44.5395 8.02 44.5395 7.948C44.5515 7.876 44.5755 7.822 44.6115 7.786L44.5935 7.696L44.6295 7.678L44.6115 7.606C44.7435 7.558 44.8215 7.45 44.8455 7.282C44.8815 7.102 44.9355 6.964 45.0075 6.868C45.0435 6.82 45.0795 6.778 45.1155 6.742C45.1515 6.706 45.1815 6.664 45.2055 6.616C45.2295 6.568 45.2415 6.538 45.2415 6.526L45.2595 6.472C45.2835 6.412 45.3195 6.352 45.3675 6.292C45.4275 6.22 45.4755 6.16 45.5115 6.112V6.094L45.5295 6.058C45.5775 6.01 45.6075 5.974 45.6195 5.95C45.6315 5.926 45.6495 5.902 45.6735 5.878V5.842L45.7095 5.806L45.7635 5.77V5.734L45.7995 5.716V5.68L45.8535 5.572C45.8775 5.56 45.8895 5.542 45.8895 5.518L45.9435 5.482H45.9615C45.9735 5.47 45.9795 5.446 45.9795 5.41H45.9975L46.0695 5.374C46.0815 5.362 46.1055 5.344 46.1415 5.32V5.248L46.2315 5.212L46.2495 5.194V5.14L46.3035 5.104C46.3155 5.092 46.3335 5.074 46.3575 5.05C46.3815 5.026 46.3875 5.008 46.3755 4.996C46.3875 4.972 46.4535 4.894 46.5735 4.762C46.7055 4.63 46.8435 4.492 46.9875 4.348C47.1315 4.204 47.2215 4.114 47.2575 4.078C47.2815 4.018 47.3115 3.97 47.3475 3.934C47.3835 3.898 47.4255 3.868 47.4735 3.844L47.5095 3.808L47.4915 3.79C47.5515 3.766 47.5935 3.742 47.6175 3.718C47.6415 3.694 47.6775 3.658 47.7255 3.61C47.7975 3.514 47.8575 3.46 47.9055 3.448C47.9415 3.388 48.0015 3.352 48.0855 3.34C48.1695 3.316 48.2595 3.304 48.3555 3.304C48.5475 3.304 48.7035 3.328 48.8235 3.376C49.0155 3.388 49.1895 3.454 49.3455 3.574C49.5015 3.694 49.6035 3.85 49.6515 4.042L49.4895 4.114C49.4535 4.018 49.4055 3.97 49.3455 3.97H49.2375C49.2255 3.958 49.2075 3.952 49.1835 3.952C49.0395 3.952 48.8775 4.018 48.6975 4.15C48.5175 4.27 48.3435 4.402 48.1755 4.546C48.0075 4.69 47.8455 4.798 47.6895 4.87C47.5695 5.026 47.4195 5.152 47.2395 5.248C47.2155 5.26 47.1435 5.338 47.0235 5.482C46.9035 5.626 46.7835 5.776 46.6635 5.932C46.5435 6.076 46.4715 6.172 46.4475 6.22C46.4595 6.232 46.4595 6.256 46.4475 6.292L46.3935 6.31C46.3455 6.394 46.2915 6.472 46.2315 6.544C46.1835 6.616 46.1235 6.682 46.0515 6.742C46.0515 6.742 46.0635 6.766 46.0875 6.814C46.0395 6.814 46.0095 6.82 45.9975 6.832C45.9855 6.832 45.9795 6.832 45.9795 6.832C45.9315 6.868 45.8835 6.922 45.8355 6.994C45.7995 7.054 45.7695 7.114 45.7455 7.174C45.6975 7.234 45.6555 7.294 45.6195 7.354C45.5835 7.414 45.5415 7.462 45.4935 7.498L45.5115 7.552C45.3915 7.636 45.3015 7.744 45.2415 7.876C45.1815 8.008 45.1395 8.14 45.1155 8.272C45.1155 8.296 45.1035 8.32 45.0795 8.344L45.0255 8.416C45.0015 8.44 44.9835 8.476 44.9715 8.524C44.9595 8.56 44.9835 8.578 45.0435 8.578C45.0675 8.578 45.0915 8.578 45.1155 8.578C45.1395 8.566 45.1635 8.56 45.1875 8.56L45.2415 8.488C45.2655 8.512 45.2895 8.524 45.3135 8.524C45.4095 8.524 45.5175 8.5 45.6375 8.452H45.7095C45.7935 8.452 45.8715 8.446 45.9435 8.434C46.0155 8.422 46.0935 8.416 46.1775 8.416C46.2495 8.392 46.3215 8.368 46.3935 8.344C46.4655 8.308 46.5375 8.284 46.6095 8.272C46.6575 8.26 46.7655 8.236 46.9335 8.2C47.1135 8.152 47.2155 8.116 47.2395 8.092C47.3355 8.08 47.4315 8.062 47.5275 8.038C47.6355 8.014 47.7315 7.996 47.8155 7.984C47.8635 7.984 47.9055 7.984 47.9415 7.984C47.9775 7.984 48.0195 7.978 48.0675 7.966C48.0915 7.966 48.1155 7.96 48.1395 7.948C48.1635 7.936 48.1875 7.93 48.2115 7.93V7.912C48.2955 7.912 48.3675 7.912 48.4275 7.912C48.4875 7.9 48.5415 7.894 48.5895 7.894L48.6255 7.858H48.6615C48.6855 7.858 48.7215 7.876 48.7695 7.912C48.8295 7.936 48.8595 7.978 48.8595 8.038H48.8055C48.7575 8.05 48.6975 8.062 48.6255 8.074C48.5655 8.086 48.5055 8.098 48.4455 8.11C48.3855 8.122 48.3255 8.134 48.2655 8.146C48.2175 8.158 48.1995 8.194 48.2115 8.254L48.0855 8.236C48.0255 8.32 47.9355 8.362 47.8155 8.362C47.7675 8.398 47.7195 8.428 47.6715 8.452C47.6235 8.476 47.5755 8.5 47.5275 8.524C47.3955 8.596 47.3355 8.656 47.3475 8.704C47.3475 8.74 47.3835 8.788 47.4555 8.848C47.5275 8.896 47.5755 8.932 47.5995 8.956C47.7435 9.1 47.8995 9.274 48.0675 9.478C48.2475 9.682 48.3495 9.892 48.3735 10.108C48.3735 10.204 48.3615 10.294 48.3375 10.378C48.3255 10.474 48.3135 10.57 48.3015 10.666V10.738C48.3015 10.786 48.3015 10.834 48.3015 10.882C48.3135 10.93 48.3255 10.984 48.3375 11.044H48.2835C48.2355 11.092 48.1875 11.17 48.1395 11.278C48.1035 11.386 48.0915 11.482 48.1035 11.566H48.0675C47.9955 11.638 47.9715 11.758 47.9955 11.926H47.9415V11.98L47.8695 12.016C47.8455 12.088 47.8155 12.142 47.7795 12.178C47.7795 12.226 47.7615 12.286 47.7255 12.358C47.6895 12.43 47.6415 12.478 47.5815 12.502C47.5695 12.55 47.5455 12.61 47.5095 12.682C47.4855 12.754 47.4495 12.802 47.4015 12.826C47.3895 12.838 47.3775 12.85 47.3655 12.862C47.3655 12.886 47.3595 12.91 47.3475 12.934L47.2575 13.096C47.1975 13.192 47.1555 13.294 47.1315 13.402L46.9335 13.42C46.9095 13.444 46.8975 13.462 46.8975 13.474L46.9155 13.51C46.9275 13.558 46.9155 13.612 46.8795 13.672C46.8075 13.732 46.7475 13.804 46.6995 13.888C46.6515 13.972 46.5975 14.05 46.5375 14.122C46.5015 14.158 46.4595 14.188 46.4115 14.212L46.3575 14.248C46.3335 14.272 46.3155 14.284 46.3035 14.284C46.0875 14.476 45.8175 14.65 45.4935 14.806C45.1695 14.962 44.8335 15.04 44.4855 15.04ZM44.5035 14.572C44.5635 14.572 44.6175 14.566 44.6655 14.554C44.7255 14.554 44.7855 14.554 44.8455 14.554C45.0255 14.482 45.1455 14.422 45.2055 14.374C45.2295 14.362 45.2655 14.332 45.3135 14.284C45.3375 14.26 45.3615 14.236 45.3855 14.212C45.4095 14.188 45.4455 14.158 45.4935 14.122L45.5295 14.032C45.6255 13.948 45.6975 13.864 45.7455 13.78C45.8055 13.708 45.8715 13.63 45.9435 13.546C45.9795 13.51 46.0095 13.474 46.0335 13.438C46.0695 13.414 46.0935 13.378 46.1055 13.33C46.1415 13.282 46.1655 13.234 46.1775 13.186C46.2255 13.126 46.2675 13.066 46.3035 13.006C46.3515 12.958 46.3935 12.904 46.4295 12.844C46.5615 12.64 46.6695 12.43 46.7535 12.214C46.8495 11.998 46.9575 11.788 47.0775 11.584V11.512C47.0775 11.476 47.0775 11.446 47.0775 11.422C47.0895 11.398 47.1015 11.374 47.1135 11.35L47.1675 11.26C47.2155 11.188 47.2575 11.074 47.2935 10.918C47.3415 10.762 47.3775 10.6 47.4015 10.432C47.4375 10.276 47.4615 10.156 47.4735 10.072C47.4735 10.048 47.4795 10.018 47.4915 9.982C47.5035 9.934 47.5155 9.904 47.5275 9.892V9.838C47.5515 9.814 47.5515 9.796 47.5275 9.784L47.3835 9.316C47.3355 9.172 47.2335 9.04 47.0775 8.92C46.9215 8.788 46.7715 8.716 46.6275 8.704L46.0155 8.92C45.9675 8.944 45.9195 8.968 45.8715 8.992C45.8235 9.016 45.7695 9.04 45.7095 9.064C45.6495 9.088 45.5775 9.112 45.4935 9.136C45.4215 9.148 45.3555 9.166 45.2955 9.19C45.2475 9.202 45.2055 9.226 45.1695 9.262C45.1335 9.286 45.0975 9.31 45.0615 9.334C44.9055 9.406 44.7795 9.472 44.6835 9.532C44.5875 9.592 44.5275 9.67 44.5035 9.766C44.4795 9.838 44.4675 9.916 44.4675 10C44.4675 10.024 44.4675 10.054 44.4675 10.09C44.4795 10.126 44.4735 10.162 44.4495 10.198C44.4015 10.33 44.3415 10.462 44.2695 10.594C44.2095 10.726 44.1615 10.858 44.1255 10.99C44.0895 11.098 44.0655 11.176 44.0535 11.224C44.0415 11.284 44.0295 11.374 44.0175 11.494L43.9455 11.71C43.8735 11.89 43.8255 12.082 43.8015 12.286C43.7655 12.502 43.7475 12.712 43.7475 12.916C43.7475 12.976 43.7475 13.042 43.7475 13.114C43.7475 13.186 43.7535 13.252 43.7655 13.312C43.7775 13.444 43.8075 13.606 43.8555 13.798C43.9035 14.002 43.9815 14.182 44.0895 14.338C44.1975 14.494 44.3355 14.572 44.5035 14.572ZM50.9293 10.126C50.7133 10.126 50.4793 10.084 50.2273 10C49.9873 9.916 49.7773 9.79 49.5973 9.622C49.4293 9.454 49.3333 9.25 49.3093 9.01C49.3093 8.95 49.3093 8.89 49.3093 8.83C49.3213 8.77 49.3213 8.716 49.3093 8.668C49.3093 8.632 49.2733 8.596 49.2013 8.56L49.1473 8.506C49.0993 8.482 49.0513 8.452 49.0033 8.416C48.9553 8.368 48.9313 8.314 48.9313 8.254C48.9673 8.242 48.9973 8.236 49.0213 8.236C49.0813 8.236 49.1353 8.242 49.1833 8.254C49.2433 8.266 49.2973 8.272 49.3453 8.272C49.3333 8.272 49.3393 8.248 49.3633 8.2C49.3633 8.176 49.3693 8.152 49.3813 8.128C49.3933 8.092 49.4053 8.068 49.4173 8.056C49.4293 8.056 49.4473 8.014 49.4713 7.93C49.4953 7.834 49.5133 7.78 49.5253 7.768C49.6933 7.252 49.9213 6.814 50.2093 6.454C50.5093 6.082 50.9173 5.806 51.4333 5.626C51.4813 5.614 51.5233 5.608 51.5593 5.608C51.6073 5.596 51.6553 5.59 51.7033 5.59C51.7993 5.59 51.9253 5.626 52.0813 5.698C52.2373 5.758 52.3753 5.842 52.4953 5.95C52.6273 6.046 52.6993 6.148 52.7113 6.256C52.7113 6.304 52.7113 6.346 52.7113 6.382C52.7233 6.418 52.7293 6.46 52.7293 6.508C52.7293 6.58 52.7113 6.664 52.6753 6.76L52.5673 6.814C52.5433 6.862 52.5193 6.898 52.4953 6.922L52.3873 7.048C52.2913 7.144 52.2553 7.21 52.2793 7.246L52.2433 7.264C52.2433 7.264 52.2433 7.27 52.2433 7.282C52.2433 7.282 52.2373 7.282 52.2253 7.282L52.2433 7.264L52.2253 7.282V7.3L52.1353 7.318C52.0873 7.354 52.0453 7.396 52.0093 7.444C51.9733 7.48 51.9373 7.522 51.9013 7.57C51.7213 7.762 51.4873 7.93 51.1993 8.074C50.9113 8.206 50.6473 8.326 50.4073 8.434C50.3713 8.446 50.3173 8.464 50.2453 8.488C50.1853 8.5 50.1433 8.524 50.1193 8.56C50.0713 8.62 50.0413 8.698 50.0293 8.794C50.0173 8.89 50.0113 8.98 50.0113 9.064C50.0353 9.208 50.0713 9.346 50.1193 9.478C50.1793 9.61 50.2993 9.676 50.4793 9.676H50.6413C50.7013 9.676 50.7613 9.67 50.8213 9.658C50.8933 9.646 50.9653 9.634 51.0373 9.622L51.1633 9.55L51.1813 9.568C51.2533 9.544 51.3793 9.49 51.5593 9.406C51.7393 9.322 51.9133 9.238 52.0813 9.154C52.2493 9.058 52.3513 8.992 52.3873 8.956L52.4053 8.938L52.4233 8.902L52.4773 8.848C52.6933 8.692 52.9033 8.56 53.1073 8.452C53.3113 8.332 53.5093 8.176 53.7013 7.984L53.7373 8.02H53.7913C53.7793 8.104 53.7493 8.17 53.7013 8.218C53.6533 8.254 53.5993 8.302 53.5393 8.362L53.4853 8.452C53.3413 8.68 53.1193 8.908 52.8193 9.136C52.5313 9.364 52.2673 9.556 52.0273 9.712C51.9433 9.76 51.8593 9.82 51.7753 9.892C51.6913 9.952 51.5953 10 51.4873 10.036C51.2833 10.096 51.0973 10.126 50.9293 10.126ZM50.3533 7.894C50.4253 7.894 50.4733 7.894 50.4973 7.894C50.5333 7.882 50.5813 7.87 50.6413 7.858C50.8813 7.726 51.1033 7.57 51.3073 7.39C51.5233 7.21 51.7273 7.03 51.9193 6.85C51.9433 6.766 52.0033 6.694 52.0993 6.634L52.1713 6.58C52.1953 6.556 52.2133 6.532 52.2253 6.508C52.2493 6.484 52.2613 6.46 52.2613 6.436C52.2733 6.424 52.2673 6.382 52.2433 6.31L52.2253 6.22V6.184C52.1893 6.172 52.1413 6.166 52.0813 6.166C51.9973 6.202 51.9133 6.256 51.8293 6.328C51.7453 6.4 51.6553 6.442 51.5593 6.454C51.5113 6.526 51.4093 6.622 51.2533 6.742C51.1693 6.814 51.0853 6.886 51.0013 6.958C50.9293 7.018 50.8813 7.06 50.8573 7.084C50.7733 7.168 50.6713 7.3 50.5513 7.48C50.4313 7.648 50.3653 7.786 50.3533 7.894ZM63.6707 6.958C63.4427 6.958 63.2087 6.958 62.9687 6.958C62.7287 6.946 62.4887 6.934 62.2487 6.922C62.1047 6.922 62.0087 6.91 61.9607 6.886C61.9127 6.85 61.8887 6.814 61.8887 6.778C61.8887 6.73 61.9067 6.688 61.9427 6.652C61.9787 6.616 62.0027 6.592 62.0147 6.58L61.9967 6.526C62.0447 6.538 62.0747 6.556 62.0867 6.58C62.1107 6.592 62.1287 6.598 62.1407 6.598L62.1587 6.58H62.1767C62.2247 6.556 62.2907 6.544 62.3747 6.544C62.4347 6.544 62.4887 6.55 62.5367 6.562C62.5847 6.562 62.6327 6.562 62.6807 6.562C62.7887 6.562 62.8967 6.556 63.0047 6.544C63.1247 6.532 63.2447 6.52 63.3647 6.508C63.3887 6.508 63.4607 6.496 63.5807 6.472C63.6167 6.46 63.6467 6.454 63.6707 6.454C63.7067 6.442 63.7307 6.424 63.7427 6.4H63.9227C63.9827 6.4 64.0367 6.4 64.0847 6.4C64.1447 6.388 64.1807 6.364 64.1927 6.328C64.3727 6.328 64.5467 6.31 64.7147 6.274C64.8947 6.226 65.0747 6.19 65.2547 6.166C65.3747 6.142 65.4827 6.106 65.5787 6.058C65.6867 5.998 65.8067 5.962 65.9387 5.95L66.5147 5.734C66.6107 5.698 66.6827 5.656 66.7307 5.608C66.7907 5.56 66.8507 5.512 66.9107 5.464C66.9347 5.44 66.9587 5.422 66.9827 5.41C67.0187 5.386 67.0547 5.368 67.0907 5.356C67.3307 5.236 67.5227 5.068 67.6667 4.852C67.8107 4.636 67.9187 4.42 67.9907 4.204C68.0627 3.976 68.0987 3.808 68.0987 3.7C68.0987 3.328 67.9547 3.04 67.6667 2.836C67.3907 2.632 67.0427 2.482 66.6227 2.386C66.2147 2.29 65.7947 2.23 65.3627 2.206C64.9307 2.182 64.5707 2.17 64.2827 2.17C64.1627 2.17 64.0427 2.182 63.9227 2.206C63.8147 2.23 63.7007 2.254 63.5807 2.278C63.4007 2.314 63.2147 2.332 63.0227 2.332C62.8427 2.32 62.6627 2.326 62.4827 2.35C61.7147 2.506 60.9467 2.74 60.1787 3.052C59.4227 3.352 58.7447 3.73 58.1447 4.186C58.0007 4.294 57.8327 4.432 57.6407 4.6C57.4487 4.756 57.2867 4.924 57.1547 5.104C57.0227 5.284 56.9627 5.464 56.9747 5.644C56.9747 5.68 57.0047 5.734 57.0647 5.806C57.1247 5.878 57.1547 5.938 57.1547 5.986C57.1547 6.046 57.1067 6.076 57.0107 6.076C56.8907 6.016 56.7947 5.89 56.7227 5.698C56.6627 5.494 56.6327 5.344 56.6327 5.248C56.5967 4.9 56.6447 4.558 56.7767 4.222C56.9207 3.874 57.1607 3.64 57.4967 3.52C57.5927 3.484 57.6887 3.46 57.7847 3.448C57.8927 3.424 57.9887 3.4 58.0727 3.376C58.2047 3.328 58.3367 3.256 58.4687 3.16C58.6127 3.052 58.7447 2.956 58.8647 2.872C58.9607 2.86 59.0507 2.836 59.1347 2.8C59.2187 2.752 59.3027 2.716 59.3867 2.692C59.5067 2.644 59.7047 2.578 59.9807 2.494C60.2567 2.398 60.5327 2.314 60.8087 2.242C61.0847 2.158 61.2767 2.116 61.3847 2.116C61.4807 2.056 61.5887 2.02 61.7087 2.008C61.8287 1.984 61.9487 1.972 62.0687 1.972C62.1287 1.936 62.2307 1.906 62.3747 1.882C62.5187 1.846 62.6267 1.834 62.6987 1.846C62.7467 1.834 62.8547 1.822 63.0227 1.81C63.1907 1.798 63.3767 1.786 63.5807 1.774C63.7847 1.75 63.9587 1.732 64.1027 1.72C64.2587 1.708 64.3367 1.702 64.3367 1.702C64.6487 1.702 64.9667 1.708 65.2907 1.72C65.6267 1.72 65.9507 1.762 66.2627 1.846C66.6347 1.93 67.0067 2.074 67.3787 2.278C67.7507 2.47 68.0687 2.716 68.3327 3.016C68.5967 3.316 68.7467 3.658 68.7827 4.042C68.7947 4.234 68.7767 4.42 68.7287 4.6C68.6807 4.768 68.6087 4.93 68.5127 5.086C68.2487 5.53 67.8647 5.878 67.3607 6.13C66.8567 6.382 66.3407 6.574 65.8127 6.706C65.6927 6.73 65.5667 6.76 65.4347 6.796C65.3027 6.82 65.1707 6.838 65.0387 6.85C64.8107 6.862 64.5767 6.886 64.3367 6.922C64.1087 6.946 63.8867 6.958 63.6707 6.958ZM61.2047 10.522C61.0247 10.522 60.8207 10.462 60.5927 10.342C60.3647 10.222 60.1667 10.072 59.9987 9.892C59.8307 9.7 59.7347 9.52 59.7107 9.352C59.6867 9.04 59.7467 8.722 59.8907 8.398C60.0347 8.062 60.1847 7.768 60.3407 7.516C60.4967 7.252 60.5687 7.072 60.5567 6.976C60.5807 6.952 60.6167 6.922 60.6647 6.886C60.7247 6.838 60.7427 6.802 60.7187 6.778C61.0427 6.25 61.3787 5.746 61.7267 5.266C61.7627 5.218 61.7927 5.17 61.8167 5.122C61.8407 5.062 61.8707 5.008 61.9067 4.96C61.9907 4.852 62.0807 4.75 62.1767 4.654C62.2727 4.546 62.3627 4.444 62.4467 4.348C62.5787 4.18 62.7047 4.012 62.8247 3.844C62.9447 3.664 63.0647 3.496 63.1847 3.34C63.2447 3.268 63.3347 3.172 63.4547 3.052C63.5867 2.92 63.6527 2.806 63.6527 2.71C63.6407 2.686 63.6167 2.656 63.5807 2.62L63.5627 2.584C63.5147 2.548 63.4907 2.5 63.4907 2.44L63.5447 2.386C63.6167 2.398 63.7547 2.434 63.9587 2.494C64.1747 2.554 64.3727 2.638 64.5527 2.746C64.7327 2.854 64.8227 2.986 64.8227 3.142C64.8227 3.262 64.7567 3.388 64.6247 3.52C64.5047 3.64 64.3667 3.76 64.2107 3.88C64.0667 3.988 63.9467 4.09 63.8507 4.186C63.5627 4.486 63.2327 4.864 62.8607 5.32C62.4887 5.764 62.1287 6.244 61.7807 6.76C61.4327 7.264 61.1507 7.774 60.9347 8.29C60.7187 8.806 60.6287 9.292 60.6647 9.748C60.6767 9.844 60.7067 9.946 60.7547 10.054C60.8027 10.162 60.8867 10.216 61.0067 10.216L61.7087 9.784C61.8407 9.688 61.9607 9.598 62.0687 9.514C62.1887 9.43 62.2487 9.358 62.2487 9.298H62.4107C62.3627 9.43 62.3087 9.532 62.2487 9.604C62.1887 9.664 62.1227 9.748 62.0507 9.856C61.9427 10 61.8227 10.144 61.6907 10.288C61.5707 10.444 61.4087 10.522 61.2047 10.522ZM67.4844 10.522C67.3644 10.534 67.2444 10.51 67.1244 10.45C67.0044 10.39 66.9324 10.294 66.9084 10.162C66.8964 9.922 66.9264 9.634 66.9984 9.298C67.0704 8.962 67.1604 8.62 67.2684 8.272C67.3764 7.924 67.4604 7.618 67.5204 7.354C67.5924 7.078 67.6284 6.886 67.6284 6.778H67.5564C67.3884 6.778 67.2084 6.724 67.0164 6.616C66.8364 6.496 66.7464 6.34 66.7464 6.148C66.7464 5.992 66.8064 5.854 66.9264 5.734C67.0584 5.614 67.1784 5.518 67.2864 5.446C67.3224 5.422 67.3584 5.392 67.3944 5.356C67.4424 5.32 67.4904 5.296 67.5384 5.284L67.7364 5.212L67.7544 5.284C67.7544 5.308 67.7004 5.374 67.5924 5.482L67.4844 5.608C67.4484 5.644 67.4304 5.668 67.4304 5.68C67.3824 5.74 67.3344 5.854 67.2864 6.022C67.2504 6.19 67.2324 6.31 67.2324 6.382C67.2444 6.43 67.2684 6.46 67.3044 6.472C67.3524 6.472 67.4004 6.472 67.4484 6.472C67.4964 6.472 67.5504 6.46 67.6104 6.436C67.6704 6.4 67.7244 6.382 67.7724 6.382C67.7964 6.31 67.8204 6.25 67.8444 6.202L67.9524 6.004V5.95C67.9764 5.866 68.0004 5.782 68.0244 5.698C68.0484 5.602 68.0664 5.512 68.0784 5.428C68.1024 5.332 68.1264 5.242 68.1504 5.158C68.1744 5.062 68.2104 4.966 68.2584 4.87C68.3424 4.678 68.4384 4.432 68.5464 4.132C68.6544 3.82 68.7684 3.52 68.8884 3.232C69.0204 2.932 69.1464 2.716 69.2664 2.584C69.3144 2.5 69.3624 2.422 69.4104 2.35C69.4704 2.278 69.5244 2.2 69.5724 2.116C69.6924 1.936 69.8724 1.726 70.1124 1.486C70.3524 1.246 70.6104 1.024 70.8864 0.819999C71.1624 0.604 71.4024 0.466 71.6064 0.405999L71.8764 0.315999C71.9964 0.34 72.1524 0.4 72.3444 0.496C72.5364 0.592 72.7044 0.705999 72.8484 0.838C73.0044 0.97 73.0884 1.108 73.1004 1.252C73.1244 1.48 73.0584 1.762 72.9024 2.098C72.7464 2.434 72.5664 2.758 72.3624 3.07C72.1584 3.37 71.9844 3.604 71.8404 3.772C71.7684 3.856 71.6904 3.94 71.6064 4.024C71.5344 4.096 71.4684 4.18 71.4084 4.276C71.3244 4.324 71.2524 4.39 71.1924 4.474C71.1444 4.546 71.0844 4.612 71.0124 4.672C70.9404 4.744 70.8024 4.864 70.5984 5.032C70.4064 5.188 70.1844 5.362 69.9324 5.554C69.6924 5.734 69.4644 5.896 69.2484 6.04C69.0444 6.172 68.9004 6.25 68.8164 6.274C68.7684 6.298 68.7204 6.322 68.6724 6.346C68.6364 6.358 68.5944 6.376 68.5464 6.4C68.4864 6.436 68.4144 6.484 68.3304 6.544C68.2824 6.58 68.2344 6.676 68.1864 6.832C68.1384 6.976 68.0904 7.132 68.0424 7.3C68.0064 7.456 67.9764 7.57 67.9524 7.642C67.9044 7.774 67.8684 7.912 67.8444 8.056C67.8324 8.2 67.7964 8.338 67.7364 8.47L67.7004 8.65C67.6764 8.77 67.6464 8.89 67.6104 9.01C67.5744 9.13 67.5444 9.256 67.5204 9.388L67.4664 9.676V9.694L67.8984 9.226C68.0064 9.106 68.1624 8.932 68.3664 8.704C68.5704 8.476 68.7924 8.23 69.0324 7.966C69.2724 7.69 69.5124 7.432 69.7524 7.192C70.0044 6.94 70.2264 6.73 70.4184 6.562C70.6104 6.394 70.7484 6.304 70.8324 6.292C70.8564 6.292 70.8744 6.292 70.8864 6.292C70.8984 6.28 70.9104 6.274 70.9224 6.274C71.1264 6.274 71.3124 6.322 71.4804 6.418C71.6484 6.514 71.7024 6.628 71.6424 6.76C71.5704 7.048 71.4624 7.348 71.3184 7.66C71.1864 7.96 71.0724 8.26 70.9764 8.56C70.8804 8.86 70.8444 9.166 70.8684 9.478C70.8804 9.562 70.9104 9.706 70.9584 9.91C71.0184 10.114 71.1204 10.216 71.2644 10.216C71.3844 10.216 71.5104 10.156 71.6424 10.036C71.7864 9.928 71.9184 9.802 72.0384 9.658C72.1704 9.514 72.2784 9.394 72.3624 9.298C72.4224 9.238 72.4824 9.178 72.5424 9.118C72.6024 9.046 72.6744 8.98 72.7584 8.92L72.7764 9.208C72.7524 9.256 72.7284 9.304 72.7044 9.352C72.6804 9.4 72.6564 9.448 72.6324 9.496C72.5484 9.628 72.4584 9.79 72.3624 9.982C72.2664 10.174 72.1524 10.318 72.0204 10.414C71.9844 10.438 71.8704 10.456 71.6784 10.468C71.4864 10.492 71.3604 10.504 71.3004 10.504C71.2284 10.504 71.1624 10.492 71.1024 10.468C71.0544 10.444 70.9944 10.42 70.9224 10.396C70.6824 10.3 70.4484 10.168 70.2204 10C70.0044 9.82 69.8964 9.598 69.8964 9.334C69.8964 9.274 69.8904 9.214 69.8784 9.154C69.8784 9.094 69.8844 9.028 69.8964 8.956C69.8964 8.812 69.9204 8.638 69.9684 8.434C70.0044 8.254 70.0344 8.074 70.0584 7.894C70.0944 7.714 70.1244 7.534 70.1484 7.354L70.1304 7.372C70.0824 7.42 70.0344 7.468 69.9864 7.516C69.9384 7.564 69.8964 7.618 69.8604 7.678C69.7884 7.774 69.7284 7.852 69.6804 7.912C69.6444 7.96 69.5784 8.026 69.4824 8.11L69.3564 8.218C69.2724 8.278 69.2004 8.35 69.1404 8.434C69.0804 8.506 69.0204 8.59 68.9604 8.686C68.9124 8.746 68.8644 8.812 68.8164 8.884C68.7804 8.944 68.7324 9.004 68.6724 9.064C68.5884 9.148 68.5044 9.232 68.4204 9.316C68.3364 9.388 68.2644 9.472 68.2044 9.568C68.1564 9.64 68.0904 9.748 68.0064 9.892C67.9224 10.036 67.8324 10.168 67.7364 10.288C67.6524 10.42 67.5684 10.498 67.4844 10.522ZM68.4384 6.058C69.3144 5.53 70.1004 4.894 70.7964 4.15C71.5044 3.394 72.0264 2.56 72.3624 1.648C72.3744 1.612 72.3804 1.57 72.3804 1.522C72.3804 1.486 72.3744 1.456 72.3624 1.432C72.3624 1.396 72.3624 1.354 72.3624 1.306C72.3624 1.306 72.3324 1.306 72.2724 1.306C72.2604 1.306 72.2364 1.306 72.2004 1.306C72.1764 1.306 72.1524 1.3 72.1284 1.288C72.0324 1.336 71.9184 1.39 71.7864 1.45C71.6544 1.51 71.5524 1.57 71.4804 1.63L71.4444 1.684V1.702C71.4204 1.726 71.4084 1.738 71.4084 1.738C71.3484 1.798 71.2884 1.858 71.2284 1.918C71.1684 1.966 71.1084 2.014 71.0484 2.062C70.9644 2.11 70.8864 2.182 70.8144 2.278L70.7604 2.35C70.7124 2.41 70.6584 2.47 70.5984 2.53C70.5384 2.578 70.4784 2.626 70.4184 2.674C70.3824 2.698 70.3044 2.788 70.1844 2.944C70.0764 3.1 69.9684 3.262 69.8604 3.43C69.7524 3.586 69.6804 3.7 69.6444 3.772C69.6324 3.808 69.6204 3.838 69.6084 3.862C69.5964 3.886 69.5724 3.91 69.5364 3.934C69.5364 3.982 69.5244 4.012 69.5004 4.024L69.5364 4.114H69.4464C69.4344 4.162 69.3984 4.24 69.3384 4.348C69.2784 4.444 69.2244 4.504 69.1764 4.528C69.1644 4.576 69.1044 4.708 68.9964 4.924C68.9004 5.128 68.7984 5.344 68.6904 5.572C68.5824 5.788 68.4984 5.95 68.4384 6.058ZM73.89 10.45C73.77 10.45 73.668 10.432 73.584 10.396C73.512 10.372 73.446 10.348 73.386 10.324C73.35 10.3 73.308 10.27 73.26 10.234C73.224 10.198 73.182 10.18 73.134 10.18C73.122 10.156 73.098 10.126 73.062 10.09L72.99 10.036C72.882 9.952 72.81 9.85 72.774 9.73C72.738 9.61 72.72 9.472 72.72 9.316C72.72 9.112 72.768 8.926 72.864 8.758C72.96 8.59 73.038 8.41 73.098 8.218C73.122 8.158 73.134 8.098 73.134 8.038C73.134 7.978 73.14 7.918 73.152 7.858C73.176 7.774 73.212 7.696 73.26 7.624C73.308 7.552 73.356 7.48 73.404 7.408C73.68 6.928 74.01 6.544 74.394 6.256C74.778 5.956 75.24 5.704 75.78 5.5C75.84 5.476 75.942 5.452 76.086 5.428C76.242 5.404 76.35 5.392 76.41 5.392C76.506 5.392 76.596 5.41 76.68 5.446C76.764 5.47 76.848 5.494 76.932 5.518C76.956 5.53 76.98 5.542 77.004 5.554C77.04 5.554 77.082 5.554 77.13 5.554L77.094 5.608C77.202 5.656 77.286 5.722 77.346 5.806C77.418 5.89 77.496 5.968 77.58 6.04L77.742 6.184C77.79 6.232 77.82 6.298 77.832 6.382C77.856 6.454 77.868 6.514 77.868 6.562C77.892 6.73 77.88 6.892 77.832 7.048C77.796 7.192 77.748 7.33 77.688 7.462C77.616 7.582 77.538 7.708 77.454 7.84C77.37 7.96 77.28 8.08 77.184 8.2C77.1 8.32 77.016 8.44 76.932 8.56C76.848 8.68 76.752 8.794 76.644 8.902C76.62 8.926 76.56 8.986 76.464 9.082C76.368 9.166 76.272 9.256 76.176 9.352C76.092 9.448 76.044 9.508 76.032 9.532C75.924 9.568 75.834 9.622 75.762 9.694L75.654 9.802C75.438 10.018 75.162 10.18 74.826 10.288C74.49 10.396 74.178 10.45 73.89 10.45ZM73.98 10.108C73.992 10.096 74.01 10.09 74.034 10.09L74.196 10.036C74.256 10.012 74.31 9.994 74.358 9.982C74.418 9.97 74.454 9.958 74.466 9.946C74.514 9.922 74.61 9.862 74.754 9.766C74.91 9.67 75.054 9.568 75.186 9.46C75.318 9.352 75.378 9.274 75.366 9.226C75.45 9.19 75.552 9.094 75.672 8.938C75.804 8.782 75.924 8.614 76.032 8.434C76.152 8.254 76.23 8.128 76.266 8.056C76.29 7.996 76.314 7.942 76.338 7.894C76.362 7.846 76.398 7.798 76.446 7.75C76.446 7.69 76.458 7.636 76.482 7.588C76.518 7.54 76.536 7.498 76.536 7.462C76.56 7.438 76.572 7.402 76.572 7.354C76.584 7.294 76.596 7.252 76.608 7.228C76.632 7.132 76.65 7.072 76.662 7.048L76.644 7.03C76.656 7.006 76.662 6.982 76.662 6.958C76.674 6.922 76.686 6.898 76.698 6.886V6.832C76.698 6.772 76.704 6.718 76.716 6.67C76.728 6.61 76.728 6.55 76.716 6.49C76.74 6.442 76.752 6.4 76.752 6.364C76.752 6.328 76.746 6.292 76.734 6.256C76.734 6.22 76.728 6.184 76.716 6.148L76.734 6.13C76.722 6.022 76.686 5.932 76.626 5.86C76.566 5.788 76.488 5.752 76.392 5.752C76.092 5.752 75.828 5.83 75.6 5.986C75.372 6.142 75.15 6.316 74.934 6.508C74.85 6.568 74.772 6.628 74.7 6.688C74.64 6.748 74.58 6.82 74.52 6.904C74.52 6.916 74.514 6.928 74.502 6.94C74.526 6.916 74.562 6.898 74.61 6.886C74.718 6.802 74.856 6.76 75.024 6.76C75.084 6.76 75.204 6.814 75.384 6.922C75.564 7.03 75.654 7.132 75.654 7.228V7.318C75.57 7.282 75.522 7.258 75.51 7.246L75.438 7.21C75.39 7.186 75.336 7.174 75.276 7.174C75.084 7.174 74.88 7.264 74.664 7.444C74.46 7.624 74.292 7.798 74.16 7.966C74.076 8.062 73.998 8.158 73.926 8.254C73.854 8.338 73.824 8.458 73.836 8.614C73.896 8.65 73.938 8.716 73.962 8.812C73.926 8.824 73.89 8.83 73.854 8.83C73.794 8.83 73.734 8.8 73.674 8.74C73.638 8.788 73.608 8.854 73.584 8.938C73.56 9.022 73.536 9.094 73.512 9.154L73.476 9.208C73.476 9.256 73.47 9.304 73.458 9.352C73.458 9.4 73.464 9.448 73.476 9.496C73.488 9.676 73.53 9.826 73.602 9.946C73.674 10.054 73.8 10.108 73.98 10.108ZM79.7575 11.386C79.6735 11.386 79.5535 11.344 79.3975 11.26C79.2535 11.188 79.1515 11.128 79.0915 11.08C78.8875 10.876 78.7855 10.57 78.7855 10.162C78.7855 9.862 78.8275 9.556 78.9115 9.244C78.9955 8.92 79.0915 8.62 79.1995 8.344C79.3075 8.056 79.3975 7.834 79.4695 7.678C79.4935 7.642 79.5175 7.594 79.5415 7.534C79.5655 7.462 79.6015 7.384 79.6495 7.3C79.7095 7.156 79.7815 7.018 79.8655 6.886L79.6315 6.958H79.5415C79.4215 7.03 79.2895 7.084 79.1455 7.12C79.0135 7.144 78.8815 7.174 78.7495 7.21C78.6055 7.246 78.4675 7.3 78.3355 7.372C78.2035 7.432 78.0715 7.492 77.9395 7.552C77.9395 7.564 77.9215 7.57 77.8855 7.57C77.8255 7.57 77.7715 7.54 77.7235 7.48C77.6755 7.408 77.6515 7.348 77.6515 7.3C77.6515 7.264 77.7235 7.222 77.8675 7.174C77.9995 7.114 78.1615 7.054 78.3535 6.994C78.5575 6.922 78.7435 6.862 78.9115 6.814C79.0915 6.754 79.2115 6.718 79.2715 6.706C79.3675 6.682 79.4515 6.658 79.5235 6.634C79.5955 6.61 79.6675 6.586 79.7395 6.562V6.544H79.8115C79.9075 6.544 79.9795 6.526 80.0275 6.49C80.1355 6.25 80.3035 5.938 80.5315 5.554C80.7595 5.158 81.0115 4.81 81.2875 4.51C81.3475 4.45 81.3775 4.378 81.3775 4.294C81.3895 4.21 81.4255 4.132 81.4855 4.06C81.5815 3.964 81.6595 3.886 81.7195 3.826C81.7915 3.766 81.8875 3.7 82.0075 3.628C82.0795 3.64 82.1995 3.682 82.3675 3.754C82.5355 3.826 82.6915 3.904 82.8355 3.988C82.9915 4.072 83.0695 4.15 83.0695 4.222C83.0695 4.258 83.0095 4.324 82.8895 4.42C82.7695 4.504 82.6435 4.588 82.5115 4.672C82.3795 4.756 82.2895 4.816 82.2415 4.852L82.1155 4.888C81.9715 5.008 81.8395 5.134 81.7195 5.266C81.5995 5.398 81.4735 5.524 81.3415 5.644C81.2695 5.716 81.2095 5.8 81.1615 5.896C81.1255 5.98 81.0715 6.058 80.9995 6.13V6.22C80.9635 6.244 80.9335 6.274 80.9095 6.31C81.2335 6.286 81.4855 6.298 81.6655 6.346C81.8575 6.382 82.0495 6.484 82.2415 6.652C82.2655 6.676 82.2775 6.706 82.2775 6.742C82.2775 6.778 82.2595 6.796 82.2235 6.796H82.1515V6.778L82.1335 6.796C81.8455 6.724 81.5695 6.688 81.3055 6.688C81.1975 6.688 81.0955 6.694 80.9995 6.706C80.9035 6.718 80.8195 6.73 80.7475 6.742C80.7475 6.742 80.7115 6.796 80.6395 6.904C80.5675 7 80.4955 7.102 80.4235 7.21C80.3515 7.306 80.3155 7.366 80.3155 7.39C80.2915 7.426 80.2435 7.51 80.1715 7.642C80.1115 7.774 80.0515 7.912 79.9915 8.056C79.9555 8.128 79.9195 8.2 79.8835 8.272C79.8595 8.332 79.8355 8.386 79.8115 8.434L79.7215 8.596C79.7215 8.68 79.7035 8.77 79.6675 8.866C79.6435 8.95 79.6195 9.028 79.5955 9.1H79.5775V9.136C79.5775 9.208 79.5595 9.286 79.5235 9.37C79.4995 9.442 79.4755 9.508 79.4515 9.568C79.3915 9.844 79.3615 10.102 79.3615 10.342C79.3615 10.402 79.3615 10.462 79.3615 10.522C79.3615 10.582 79.3675 10.642 79.3795 10.702C79.4035 10.786 79.4275 10.858 79.4515 10.918C79.4875 10.978 79.5415 11.026 79.6135 11.062C79.6495 11.062 79.6795 11.068 79.7035 11.08L79.8475 11.098C79.9915 11.122 80.0635 11.158 80.0635 11.206C80.0635 11.29 80.0215 11.338 79.9375 11.35C79.8655 11.374 79.8055 11.386 79.7575 11.386ZM83.0482 10.45C82.9282 10.45 82.8262 10.432 82.7422 10.396C82.6702 10.372 82.6042 10.348 82.5442 10.324C82.5082 10.3 82.4662 10.27 82.4182 10.234C82.3822 10.198 82.3402 10.18 82.2922 10.18C82.2802 10.156 82.2562 10.126 82.2202 10.09L82.1482 10.036C82.0402 9.952 81.9682 9.85 81.9322 9.73C81.8962 9.61 81.8782 9.472 81.8782 9.316C81.8782 9.112 81.9262 8.926 82.0222 8.758C82.1182 8.59 82.1962 8.41 82.2562 8.218C82.2802 8.158 82.2922 8.098 82.2922 8.038C82.2922 7.978 82.2982 7.918 82.3102 7.858C82.3342 7.774 82.3702 7.696 82.4182 7.624C82.4662 7.552 82.5142 7.48 82.5622 7.408C82.8382 6.928 83.1682 6.544 83.5522 6.256C83.9362 5.956 84.3982 5.704 84.9382 5.5C84.9982 5.476 85.1002 5.452 85.2442 5.428C85.4002 5.404 85.5082 5.392 85.5682 5.392C85.6642 5.392 85.7542 5.41 85.8382 5.446C85.9222 5.47 86.0062 5.494 86.0902 5.518C86.1142 5.53 86.1382 5.542 86.1622 5.554C86.1982 5.554 86.2402 5.554 86.2882 5.554L86.2522 5.608C86.3602 5.656 86.4442 5.722 86.5042 5.806C86.5762 5.89 86.6542 5.968 86.7382 6.04L86.9002 6.184C86.9482 6.232 86.9782 6.298 86.9902 6.382C87.0142 6.454 87.0262 6.514 87.0262 6.562C87.0502 6.73 87.0382 6.892 86.9902 7.048C86.9542 7.192 86.9062 7.33 86.8462 7.462C86.7742 7.582 86.6962 7.708 86.6122 7.84C86.5282 7.96 86.4382 8.08 86.3422 8.2C86.2582 8.32 86.1742 8.44 86.0902 8.56C86.0062 8.68 85.9102 8.794 85.8022 8.902C85.7782 8.926 85.7182 8.986 85.6222 9.082C85.5262 9.166 85.4302 9.256 85.3342 9.352C85.2502 9.448 85.2022 9.508 85.1902 9.532C85.0822 9.568 84.9922 9.622 84.9202 9.694L84.8122 9.802C84.5962 10.018 84.3202 10.18 83.9842 10.288C83.6482 10.396 83.3362 10.45 83.0482 10.45ZM83.1382 10.108C83.1502 10.096 83.1682 10.09 83.1922 10.09L83.3542 10.036C83.4142 10.012 83.4682 9.994 83.5162 9.982C83.5762 9.97 83.6122 9.958 83.6242 9.946C83.6722 9.922 83.7682 9.862 83.9122 9.766C84.0682 9.67 84.2122 9.568 84.3442 9.46C84.4762 9.352 84.5362 9.274 84.5242 9.226C84.6082 9.19 84.7102 9.094 84.8302 8.938C84.9622 8.782 85.0822 8.614 85.1902 8.434C85.3102 8.254 85.3882 8.128 85.4242 8.056C85.4482 7.996 85.4722 7.942 85.4962 7.894C85.5202 7.846 85.5562 7.798 85.6042 7.75C85.6042 7.69 85.6162 7.636 85.6402 7.588C85.6762 7.54 85.6942 7.498 85.6942 7.462C85.7182 7.438 85.7302 7.402 85.7302 7.354C85.7422 7.294 85.7542 7.252 85.7662 7.228C85.7902 7.132 85.8082 7.072 85.8202 7.048L85.8022 7.03C85.8142 7.006 85.8202 6.982 85.8202 6.958C85.8322 6.922 85.8442 6.898 85.8562 6.886V6.832C85.8562 6.772 85.8622 6.718 85.8742 6.67C85.8862 6.61 85.8862 6.55 85.8742 6.49C85.8982 6.442 85.9102 6.4 85.9102 6.364C85.9102 6.328 85.9042 6.292 85.8922 6.256C85.8922 6.22 85.8862 6.184 85.8742 6.148L85.8922 6.13C85.8802 6.022 85.8442 5.932 85.7842 5.86C85.7242 5.788 85.6462 5.752 85.5502 5.752C85.2502 5.752 84.9862 5.83 84.7582 5.986C84.5302 6.142 84.3082 6.316 84.0922 6.508C84.0082 6.568 83.9302 6.628 83.8582 6.688C83.7982 6.748 83.7382 6.82 83.6782 6.904C83.6782 6.916 83.6722 6.928 83.6602 6.94C83.6842 6.916 83.7202 6.898 83.7682 6.886C83.8762 6.802 84.0142 6.76 84.1822 6.76C84.2422 6.76 84.3622 6.814 84.5422 6.922C84.7222 7.03 84.8122 7.132 84.8122 7.228V7.318C84.7282 7.282 84.6802 7.258 84.6682 7.246L84.5962 7.21C84.5482 7.186 84.4942 7.174 84.4342 7.174C84.2422 7.174 84.0382 7.264 83.8222 7.444C83.6182 7.624 83.4502 7.798 83.3182 7.966C83.2342 8.062 83.1562 8.158 83.0842 8.254C83.0122 8.338 82.9822 8.458 82.9942 8.614C83.0542 8.65 83.0962 8.716 83.1202 8.812C83.0842 8.824 83.0482 8.83 83.0122 8.83C82.9522 8.83 82.8922 8.8 82.8322 8.74C82.7962 8.788 82.7662 8.854 82.7422 8.938C82.7182 9.022 82.6942 9.094 82.6702 9.154L82.6342 9.208C82.6342 9.256 82.6282 9.304 82.6162 9.352C82.6162 9.4 82.6222 9.448 82.6342 9.496C82.6462 9.676 82.6882 9.826 82.7602 9.946C82.8322 10.054 82.9582 10.108 83.1382 10.108ZM87.9077 14.5C87.6677 14.5 87.3857 14.44 87.0617 14.32C86.7377 14.212 86.4557 14.05 86.2157 13.834C85.9637 13.63 85.8257 13.396 85.8017 13.132C85.8017 13.108 85.8077 13.09 85.8197 13.078C85.8317 13.018 85.8377 12.958 85.8377 12.898C85.8257 12.85 85.8257 12.802 85.8377 12.754C85.8377 12.694 85.8437 12.628 85.8557 12.556C85.8677 12.496 85.8737 12.43 85.8737 12.358C85.8737 12.334 85.8737 12.304 85.8737 12.268C85.8617 12.244 85.8557 12.214 85.8557 12.178C85.8557 12.082 85.8797 12.004 85.9277 11.944L85.9997 11.908H86.0537C86.0657 12.052 86.0717 12.16 86.0717 12.232C86.0717 12.316 86.0957 12.424 86.1437 12.556L86.2517 12.844L86.3417 13.006L86.3597 13.078C86.3837 13.138 86.4197 13.198 86.4677 13.258C86.5157 13.33 86.5637 13.396 86.6117 13.456C86.6957 13.564 86.7557 13.666 86.7917 13.762C86.9717 13.918 87.1397 14.026 87.2957 14.086C87.4517 14.158 87.6557 14.194 87.9077 14.194C88.1237 14.194 88.3697 14.104 88.6457 13.924C88.9337 13.744 89.1497 13.582 89.2937 13.438C89.4617 13.27 89.6057 13.084 89.7257 12.88C89.8577 12.688 89.9837 12.49 90.1037 12.286C90.5237 11.566 90.8597 10.846 91.1117 10.126C91.3637 9.406 91.5677 8.644 91.7237 7.84C91.6757 7.924 91.6217 8.002 91.5617 8.074C91.5017 8.146 91.4417 8.212 91.3817 8.272C91.3337 8.344 91.2797 8.416 91.2197 8.488C91.1597 8.56 91.0997 8.644 91.0397 8.74H90.9857V8.794C90.8417 8.854 90.6917 8.974 90.5357 9.154C90.3917 9.334 90.2537 9.472 90.1217 9.568C89.9657 9.688 89.8637 9.76 89.8157 9.784C89.7797 9.808 89.7557 9.826 89.7437 9.838C89.7437 9.838 89.7197 9.874 89.6717 9.946C89.5877 9.958 89.5097 9.982 89.4377 10.018C89.3777 10.066 89.3057 10.114 89.2217 10.162C89.1497 10.198 89.0657 10.234 88.9697 10.27C88.8737 10.306 88.7597 10.324 88.6277 10.324C88.5077 10.324 88.3397 10.252 88.1237 10.108C87.9077 9.976 87.7577 9.862 87.6737 9.766C87.6497 9.73 87.6077 9.7 87.5477 9.676C87.4877 9.64 87.4397 9.598 87.4037 9.55C87.3557 9.49 87.3017 9.406 87.2417 9.298C87.1817 9.19 87.1517 9.094 87.1517 9.01C87.1397 8.938 87.1517 8.818 87.1877 8.65C87.2237 8.47 87.2717 8.284 87.3317 8.092C87.4037 7.888 87.4817 7.714 87.5657 7.57C87.6497 7.414 87.7337 7.324 87.8177 7.3C87.8417 7.276 87.8777 7.252 87.9257 7.228C87.9737 7.192 87.9977 7.162 87.9977 7.138V7.12L87.9257 7.138C87.9497 7.042 88.0277 6.904 88.1597 6.724C88.2917 6.544 88.4537 6.358 88.6457 6.166C88.8377 5.962 89.0177 5.782 89.1857 5.626C89.3657 5.47 89.5037 5.374 89.5997 5.338C89.7437 5.266 89.9117 5.194 90.1037 5.122C90.2957 5.038 90.4817 4.966 90.6617 4.906V4.924C90.7577 4.9 90.8297 4.888 90.8777 4.888C90.9617 4.888 91.0697 4.912 91.2017 4.96C91.3457 4.996 91.4597 5.026 91.5437 5.05C91.6757 5.086 91.8257 5.164 91.9937 5.284C92.1737 5.392 92.3237 5.518 92.4437 5.662C92.5757 5.806 92.6417 5.95 92.6417 6.094V6.148C92.6417 6.208 92.6297 6.268 92.6057 6.328C92.5937 6.388 92.5877 6.448 92.5877 6.508C92.6357 6.532 92.7197 6.58 92.8397 6.652C92.9597 6.712 93.0197 6.772 93.0197 6.832C93.0317 6.904 93.0197 7.036 92.9837 7.228C92.9597 7.408 92.9297 7.6 92.8937 7.804C92.8577 7.996 92.8217 8.14 92.7857 8.236C92.7497 8.356 92.7197 8.488 92.6957 8.632C92.6837 8.764 92.6597 8.896 92.6237 9.028C92.5757 9.184 92.5157 9.334 92.4437 9.478C92.3717 9.622 92.3177 9.772 92.2817 9.928L92.2277 10.144C92.2037 10.228 92.1677 10.312 92.1197 10.396C92.0837 10.48 92.0477 10.57 92.0117 10.666C91.9757 10.75 91.9097 10.864 91.8137 11.008C91.7297 11.152 91.6817 11.254 91.6697 11.314C91.6337 11.458 91.5677 11.59 91.4717 11.71C91.3877 11.83 91.2977 11.938 91.2017 12.034C91.1897 12.118 91.1177 12.25 90.9857 12.43C90.8657 12.61 90.7937 12.718 90.7697 12.754C90.7337 12.766 90.7157 12.784 90.7157 12.808C90.7037 12.832 90.6557 12.898 90.5717 13.006C90.4997 13.114 90.4517 13.18 90.4277 13.204C90.4157 13.252 90.3917 13.288 90.3557 13.312C90.3197 13.336 90.2897 13.36 90.2657 13.384C90.2057 13.432 90.1517 13.492 90.1037 13.564C90.0557 13.636 90.0017 13.702 89.9417 13.762C89.9177 13.774 89.8817 13.786 89.8337 13.798C89.7857 13.822 89.7317 13.852 89.6717 13.888C89.4077 14.044 89.1257 14.182 88.8257 14.302C88.5377 14.434 88.2317 14.5 87.9077 14.5ZM88.3217 9.874C88.3937 9.874 88.4837 9.862 88.5917 9.838C88.7117 9.802 88.7957 9.76 88.8437 9.712L88.8617 9.694C88.8857 9.67 88.9097 9.658 88.9337 9.658C89.1617 9.526 89.3657 9.388 89.5457 9.244C89.7257 9.1 89.9117 8.944 90.1037 8.776C90.1277 8.752 90.1517 8.728 90.1757 8.704C90.2117 8.668 90.2417 8.638 90.2657 8.614L90.4277 8.434C90.4877 8.374 90.5477 8.314 90.6077 8.254C90.6677 8.194 90.7337 8.146 90.8057 8.11L90.8237 8.092C90.9557 7.96 91.0817 7.834 91.2017 7.714C91.3217 7.582 91.4297 7.444 91.5257 7.3C91.5497 7.264 91.5737 7.228 91.5977 7.192C91.6217 7.144 91.6457 7.102 91.6697 7.066C91.7297 6.994 91.7837 6.928 91.8317 6.868C91.8917 6.808 91.9457 6.748 91.9937 6.688C92.0057 6.688 92.0117 6.676 92.0117 6.652C92.0357 6.628 92.0537 6.604 92.0657 6.58C92.0777 6.556 92.0897 6.538 92.1017 6.526C92.1257 6.502 92.1617 6.484 92.2097 6.472C92.2577 6.46 92.2997 6.448 92.3357 6.436C92.3237 6.328 92.2637 6.172 92.1557 5.968C92.0597 5.752 91.9757 5.626 91.9037 5.59C91.8557 5.566 91.7837 5.548 91.6877 5.536C91.6037 5.524 91.5317 5.518 91.4717 5.518L91.2017 5.572C90.9857 5.62 90.7817 5.71 90.5897 5.842C90.4097 5.962 90.2297 6.088 90.0497 6.22L89.6717 6.49C89.5637 6.574 89.4677 6.67 89.3837 6.778C89.2997 6.874 89.2037 6.97 89.0957 7.066C89.0477 7.114 89.0117 7.174 88.9877 7.246C88.9637 7.306 88.9277 7.366 88.8797 7.426C88.4957 7.858 88.2257 8.344 88.0697 8.884C88.0457 8.968 88.0217 9.052 87.9977 9.136C87.9737 9.22 87.9617 9.31 87.9617 9.406C87.9617 9.526 87.9857 9.634 88.0337 9.73C88.0937 9.826 88.1897 9.874 88.3217 9.874ZM93.8423 10.378C93.7583 10.378 93.6683 10.354 93.5723 10.306C93.4763 10.258 93.4103 10.192 93.3743 10.108L93.3923 10.018C93.4643 9.646 93.5723 9.286 93.7163 8.938C93.8603 8.59 93.9923 8.242 94.1123 7.894C94.2083 7.63 94.3163 7.306 94.4363 6.922C94.5563 6.538 94.6163 6.196 94.6163 5.896C94.6163 5.86 94.6163 5.824 94.6163 5.788C94.6163 5.74 94.6103 5.698 94.5983 5.662C94.5143 5.662 94.4363 5.674 94.3643 5.698C94.2923 5.71 94.2143 5.716 94.1303 5.716H94.1123C94.0523 5.716 94.0223 5.68 94.0223 5.608C94.0223 5.572 94.0463 5.53 94.0943 5.482C94.1423 5.434 94.2143 5.41 94.3103 5.41C94.3463 5.422 94.4483 5.428 94.6163 5.428C94.7123 5.428 94.8443 5.434 95.0123 5.446C95.1803 5.446 95.3363 5.464 95.4803 5.5C95.6363 5.536 95.7263 5.614 95.7503 5.734C95.7623 5.806 95.7263 5.944 95.6423 6.148C95.5703 6.34 95.4863 6.55 95.3903 6.778C95.2823 7.006 95.1803 7.228 95.0843 7.444C95.0483 7.54 95.0123 7.636 94.9763 7.732C94.9403 7.816 94.9223 7.888 94.9223 7.948V7.966L94.9583 7.912C95.0303 7.804 95.1023 7.702 95.1743 7.606C95.2583 7.51 95.3243 7.42 95.3723 7.336C95.4323 7.264 95.5223 7.156 95.6423 7.012C95.7743 6.856 95.9063 6.694 96.0383 6.526C96.1823 6.358 96.3203 6.19 96.4523 6.022C96.5963 5.854 96.7223 5.728 96.8303 5.644C96.8543 5.62 96.8783 5.59 96.9023 5.554C96.9383 5.518 96.9743 5.494 97.0103 5.482C97.0463 5.47 97.0943 5.464 97.1543 5.464C97.2263 5.452 97.3283 5.446 97.4603 5.446C97.4963 5.446 97.5323 5.452 97.5683 5.464C97.6043 5.464 97.6343 5.464 97.6583 5.464C97.7063 5.464 97.8083 5.5 97.9643 5.572C98.1203 5.632 98.2763 5.704 98.4323 5.788C98.5883 5.872 98.6663 5.944 98.6663 6.004C98.6783 6.124 98.6363 6.214 98.5403 6.274C98.4563 6.322 98.3843 6.382 98.3243 6.454C98.2403 6.562 98.1563 6.682 98.0723 6.814C98.0003 6.934 97.9403 7.06 97.8923 7.192L97.8563 7.3C97.8083 7.348 97.7663 7.372 97.7303 7.372C97.6583 7.372 97.6343 7.33 97.6583 7.246C97.6583 7.126 97.6703 7.018 97.6943 6.922C97.7183 6.814 97.7363 6.718 97.7483 6.634C97.7723 6.538 97.7843 6.448 97.7843 6.364C97.7963 6.268 97.7963 6.166 97.7843 6.058C97.7843 6.022 97.7723 6.004 97.7483 6.004C97.6403 6.004 97.5383 6.052 97.4423 6.148C97.3463 6.244 97.2683 6.328 97.2083 6.4L97.1003 6.472C97.0403 6.556 96.9383 6.652 96.7943 6.76L96.4523 7.012C96.3683 7.072 96.2483 7.192 96.0923 7.372C95.9363 7.54 95.8163 7.672 95.7323 7.768C95.7323 7.78 95.6903 7.786 95.6063 7.786H95.5883L95.5703 7.804V7.84C95.5943 7.876 95.5823 7.918 95.5343 7.966C95.4623 8.062 95.3363 8.224 95.1563 8.452C94.9763 8.68 94.8023 8.908 94.6343 9.136C94.4663 9.352 94.3703 9.508 94.3463 9.604C94.2983 9.736 94.2563 9.856 94.2203 9.964C94.1963 10.072 94.1903 10.204 94.2023 10.36C94.1183 10.348 94.0583 10.342 94.0223 10.342C93.9983 10.354 93.9803 10.36 93.9683 10.36C93.9323 10.372 93.8903 10.378 93.8423 10.378ZM103.098 10.18C102.978 10.18 102.84 10.15 102.684 10.09C102.528 10.042 102.402 9.976 102.306 9.892C102.018 9.628 101.85 9.328 101.802 8.992C101.754 8.644 101.718 8.29 101.694 7.93C101.646 7.99 101.58 8.062 101.496 8.146C101.424 8.218 101.358 8.284 101.298 8.344C101.262 8.38 101.226 8.428 101.19 8.488C101.154 8.536 101.118 8.584 101.082 8.632C100.998 8.716 100.92 8.782 100.848 8.83C100.776 8.866 100.71 8.914 100.65 8.974C100.626 8.998 100.578 9.058 100.506 9.154C100.482 9.202 100.446 9.244 100.398 9.28C100.35 9.304 100.308 9.34 100.272 9.388C100.188 9.4 100.116 9.442 100.056 9.514C100.008 9.574 99.9541 9.64 99.8941 9.712C99.7741 9.76 99.6421 9.826 99.4981 9.91C99.3661 9.982 99.2341 10.018 99.1021 10.018C98.9341 10.018 98.7481 9.976 98.5441 9.892C98.3521 9.808 98.1781 9.694 98.0221 9.55C97.8661 9.394 97.7761 9.226 97.7521 9.046H97.7341V8.722C97.7341 8.53 97.7581 8.404 97.8061 8.344C97.8301 8.308 97.8481 8.266 97.8601 8.218C97.8721 8.158 97.8841 8.11 97.8961 8.074L98.1481 7.714C98.1841 7.654 98.2741 7.546 98.4181 7.39C98.5741 7.234 98.7361 7.078 98.9041 6.922C99.0721 6.766 99.1921 6.658 99.2641 6.598C99.3601 6.514 99.5041 6.418 99.6961 6.31C99.8881 6.202 100.08 6.094 100.272 5.986C100.476 5.878 100.638 5.794 100.758 5.734L100.83 5.716C100.89 5.668 100.986 5.62 101.118 5.572C101.262 5.512 101.364 5.476 101.424 5.464C101.496 5.44 101.61 5.428 101.766 5.428C101.922 5.416 102.042 5.404 102.126 5.392C102.198 5.392 102.258 5.38 102.306 5.356L102.684 5.464C102.816 5.476 102.972 5.536 103.152 5.644C103.332 5.752 103.428 5.89 103.44 6.058C103.464 6.142 103.458 6.208 103.422 6.256L103.26 6.166C103.176 6.034 103.056 5.956 102.9 5.932C102.756 5.896 102.606 5.878 102.45 5.878C102.114 5.878 101.754 5.962 101.37 6.13C100.986 6.286 100.62 6.496 100.272 6.76C99.9241 7.012 99.6121 7.288 99.3361 7.588C99.0721 7.888 98.8801 8.176 98.7601 8.452C98.7481 8.488 98.7361 8.524 98.7241 8.56C98.7241 8.596 98.7181 8.626 98.7061 8.65C98.6701 8.77 98.6341 8.884 98.5981 8.992C98.5741 9.1 98.5681 9.22 98.5801 9.352C98.5801 9.436 98.5921 9.484 98.6161 9.496C98.6401 9.508 98.6881 9.55 98.7601 9.622L98.9041 9.676L99.0301 9.622L99.1741 9.568C99.2701 9.532 99.3481 9.484 99.4081 9.424C99.4561 9.4 99.4981 9.388 99.5341 9.388C99.5701 9.376 99.5881 9.364 99.5881 9.352C99.6721 9.328 99.7141 9.298 99.7141 9.262C99.7261 9.214 99.7621 9.166 99.8221 9.118C100.002 8.95 100.176 8.788 100.344 8.632C100.524 8.464 100.692 8.29 100.848 8.11C100.932 8.014 101.034 7.906 101.154 7.786C101.286 7.666 101.406 7.546 101.514 7.426C101.55 7.39 101.58 7.354 101.604 7.318C101.64 7.27 101.67 7.228 101.694 7.192C101.754 7.096 101.844 6.964 101.964 6.796C102.084 6.616 102.222 6.526 102.378 6.526C102.402 6.514 102.438 6.508 102.486 6.508C102.606 6.508 102.702 6.556 102.774 6.652C102.846 6.736 102.882 6.826 102.882 6.922C102.882 7.042 102.858 7.156 102.81 7.264C102.762 7.36 102.726 7.462 102.702 7.57C102.654 7.846 102.63 8.116 102.63 8.38C102.63 8.464 102.63 8.548 102.63 8.632C102.63 8.716 102.636 8.806 102.648 8.902C102.684 9.154 102.81 9.382 103.026 9.586L103.098 9.604C103.266 9.508 103.38 9.412 103.44 9.316C103.512 9.22 103.608 9.1 103.728 8.956C103.728 8.956 103.74 8.95 103.764 8.938C103.788 8.914 103.806 8.902 103.818 8.902C103.866 8.902 103.89 8.926 103.89 8.974V8.992C103.89 9.04 103.884 9.088 103.872 9.136C103.86 9.172 103.848 9.22 103.836 9.28C103.824 9.424 103.752 9.61 103.62 9.838C103.5 10.066 103.326 10.18 103.098 10.18ZM104.461 14.626C104.401 14.626 104.341 14.608 104.281 14.572C104.101 14.56 103.939 14.476 103.795 14.32C103.639 14.176 103.519 14.008 103.435 13.816C103.339 13.624 103.285 13.468 103.273 13.348C103.261 13.24 103.267 13.132 103.291 13.024C103.303 12.916 103.315 12.808 103.327 12.7C103.387 12.64 103.423 12.562 103.435 12.466C103.435 12.382 103.441 12.298 103.453 12.214C103.513 11.986 103.549 11.854 103.561 11.818C103.573 11.782 103.597 11.74 103.633 11.692C103.657 11.656 103.705 11.53 103.777 11.314L103.795 11.278C103.795 11.254 103.807 11.23 103.831 11.206L103.813 11.152C103.873 11.08 103.915 11.002 103.939 10.918C103.963 10.834 103.993 10.75 104.029 10.666C104.089 10.534 104.149 10.402 104.209 10.27C104.281 10.15 104.353 10.03 104.425 9.91C104.521 9.754 104.611 9.604 104.695 9.46C104.779 9.304 104.869 9.148 104.965 8.992C105.013 8.92 105.061 8.854 105.109 8.794C105.157 8.722 105.199 8.65 105.235 8.578C105.331 8.362 105.451 8.116 105.595 7.84C105.739 7.564 105.883 7.324 106.027 7.12L106.009 7.084L106.063 6.994C106.087 6.886 106.153 6.76 106.261 6.616C106.369 6.46 106.429 6.34 106.441 6.256C106.321 6.256 106.153 6.298 105.937 6.382C105.721 6.454 105.499 6.55 105.271 6.67C105.043 6.778 104.851 6.898 104.695 7.03C104.539 7.15 104.467 7.258 104.479 7.354C104.491 7.414 104.527 7.468 104.587 7.516C104.647 7.552 104.701 7.582 104.749 7.606V7.66C104.737 7.66 104.725 7.666 104.713 7.678L104.731 7.696C104.719 7.696 104.713 7.69 104.713 7.678L104.695 7.714C104.611 7.702 104.497 7.678 104.353 7.642C104.209 7.606 104.077 7.552 103.957 7.48C103.837 7.408 103.777 7.318 103.777 7.21C103.777 7.078 103.873 6.946 104.065 6.814C104.257 6.67 104.485 6.538 104.749 6.418C105.013 6.286 105.265 6.178 105.505 6.094C105.757 5.998 105.937 5.944 106.045 5.932L106.441 5.86L106.747 5.824C106.843 5.692 106.939 5.56 107.035 5.428C107.143 5.284 107.239 5.146 107.323 5.014H107.359L107.377 4.996H107.467L107.485 4.978C107.605 4.99 107.749 5.074 107.917 5.23C108.085 5.374 108.175 5.494 108.187 5.59C108.187 5.638 108.169 5.68 108.133 5.716C108.097 5.752 108.049 5.782 107.989 5.806L107.935 5.842C107.875 5.878 107.845 5.908 107.845 5.932C107.845 5.956 107.863 5.974 107.899 5.986C107.935 5.998 107.971 6.016 108.007 6.04C108.067 6.064 108.127 6.094 108.187 6.13C108.247 6.154 108.313 6.19 108.385 6.238C108.517 6.322 108.643 6.436 108.763 6.58C108.895 6.712 108.967 6.898 108.979 7.138C108.991 7.222 108.985 7.306 108.961 7.39C108.949 7.474 108.955 7.558 108.979 7.642C109.039 7.642 109.117 7.636 109.213 7.624C109.309 7.612 109.375 7.606 109.411 7.606C109.483 7.606 109.597 7.63 109.753 7.678C109.909 7.714 110.017 7.75 110.077 7.786C110.125 7.81 110.161 7.846 110.185 7.894C110.221 7.93 110.257 7.96 110.293 7.984L110.311 8.074L110.203 8.092C110.131 8.068 110.059 8.044 109.987 8.02C109.927 7.996 109.861 7.984 109.789 7.984C109.741 7.984 109.687 7.99 109.627 8.002C109.579 8.014 109.525 8.032 109.465 8.056C109.297 8.116 109.141 8.23 108.997 8.398C108.865 8.566 108.739 8.752 108.619 8.956C108.523 9.04 108.445 9.148 108.385 9.28C108.325 9.4 108.247 9.508 108.151 9.604C108.079 9.688 108.001 9.778 107.917 9.874C107.833 9.958 107.755 10.036 107.683 10.108C107.671 10.12 107.659 10.132 107.647 10.144C107.635 10.156 107.617 10.174 107.593 10.198L107.485 10.288C107.449 10.324 107.413 10.354 107.377 10.378C107.341 10.402 107.317 10.426 107.305 10.45C107.245 10.522 107.125 10.606 106.945 10.702C106.765 10.798 106.567 10.822 106.351 10.774C106.207 10.75 106.057 10.642 105.901 10.45C105.745 10.27 105.667 10.12 105.667 10C105.667 9.724 105.793 9.46 106.045 9.208C106.297 8.944 106.585 8.71 106.909 8.506C107.233 8.302 107.503 8.152 107.719 8.056C107.755 8.032 107.851 7.99 108.007 7.93C108.175 7.858 108.265 7.816 108.277 7.804C108.337 7.744 108.373 7.66 108.385 7.552C108.409 7.444 108.421 7.342 108.421 7.246C108.421 6.982 108.385 6.76 108.313 6.58C108.253 6.4 108.079 6.31 107.791 6.31C107.623 6.31 107.461 6.364 107.305 6.472C107.197 6.544 107.065 6.7 106.909 6.94C106.753 7.18 106.633 7.36 106.549 7.48C106.189 7.996 105.883 8.542 105.631 9.118C105.391 9.694 105.151 10.27 104.911 10.846C104.887 10.942 104.851 11.002 104.803 11.026C104.803 11.05 104.773 11.14 104.713 11.296C104.665 11.452 104.611 11.602 104.551 11.746C104.503 11.902 104.467 11.998 104.443 12.034L104.425 12.07C104.413 12.082 104.407 12.1 104.407 12.124C104.395 12.208 104.377 12.286 104.353 12.358C104.329 12.43 104.305 12.508 104.281 12.592C104.233 12.796 104.191 13.012 104.155 13.24C104.119 13.48 104.107 13.702 104.119 13.906C104.131 13.966 104.143 14.032 104.155 14.104C104.167 14.176 104.191 14.242 104.227 14.302C104.251 14.35 104.311 14.392 104.407 14.428C104.515 14.464 104.569 14.506 104.569 14.554C104.569 14.602 104.533 14.626 104.461 14.626ZM106.459 9.982C106.519 9.946 106.579 9.91 106.639 9.874C106.699 9.826 106.753 9.778 106.801 9.73L106.909 9.64C107.221 9.436 107.437 9.244 107.557 9.064C107.677 8.884 107.851 8.656 108.079 8.38C108.127 8.332 108.139 8.29 108.115 8.254C108.043 8.314 107.965 8.368 107.881 8.416C107.809 8.464 107.725 8.512 107.629 8.56C107.545 8.608 107.461 8.662 107.377 8.722C107.293 8.782 107.215 8.842 107.143 8.902C107.107 8.914 107.005 8.986 106.837 9.118C106.765 9.166 106.693 9.226 106.621 9.298C106.549 9.358 106.483 9.43 106.423 9.514C106.315 9.634 106.261 9.76 106.261 9.892C106.261 10.036 106.327 10.066 106.459 9.982ZM111.236 10.522C111.116 10.534 110.996 10.51 110.876 10.45C110.756 10.39 110.684 10.294 110.66 10.162C110.648 9.922 110.678 9.634 110.75 9.298C110.822 8.962 110.912 8.62 111.02 8.272C111.128 7.924 111.212 7.618 111.272 7.354C111.344 7.078 111.38 6.886 111.38 6.778H111.308C111.14 6.778 110.96 6.724 110.768 6.616C110.588 6.496 110.498 6.34 110.498 6.148C110.498 5.992 110.558 5.854 110.678 5.734C110.81 5.614 110.93 5.518 111.038 5.446C111.074 5.422 111.11 5.392 111.146 5.356C111.194 5.32 111.242 5.296 111.29 5.284L111.488 5.212L111.506 5.284C111.506 5.308 111.452 5.374 111.344 5.482L111.236 5.608C111.2 5.644 111.182 5.668 111.182 5.68C111.134 5.74 111.086 5.854 111.038 6.022C111.002 6.19 110.984 6.31 110.984 6.382C110.996 6.43 111.02 6.46 111.056 6.472C111.104 6.472 111.152 6.472 111.2 6.472C111.248 6.472 111.302 6.46 111.362 6.436C111.422 6.4 111.476 6.382 111.524 6.382C111.548 6.31 111.572 6.25 111.596 6.202L111.704 6.004V5.95C111.728 5.866 111.752 5.782 111.776 5.698C111.8 5.602 111.818 5.512 111.83 5.428C111.854 5.332 111.878 5.242 111.902 5.158C111.926 5.062 111.962 4.966 112.01 4.87C112.094 4.678 112.19 4.432 112.298 4.132C112.406 3.82 112.52 3.52 112.64 3.232C112.772 2.932 112.898 2.716 113.018 2.584C113.066 2.5 113.114 2.422 113.162 2.35C113.222 2.278 113.276 2.2 113.324 2.116C113.444 1.936 113.624 1.726 113.864 1.486C114.104 1.246 114.362 1.024 114.638 0.819999C114.914 0.604 115.154 0.466 115.358 0.405999L115.628 0.315999C115.748 0.34 115.904 0.4 116.096 0.496C116.288 0.592 116.456 0.705999 116.6 0.838C116.756 0.97 116.84 1.108 116.852 1.252C116.876 1.48 116.81 1.762 116.654 2.098C116.498 2.434 116.318 2.758 116.114 3.07C115.91 3.37 115.736 3.604 115.592 3.772C115.52 3.856 115.442 3.94 115.358 4.024C115.286 4.096 115.22 4.18 115.16 4.276C115.076 4.324 115.004 4.39 114.944 4.474C114.896 4.546 114.836 4.612 114.764 4.672C114.692 4.744 114.554 4.864 114.35 5.032C114.158 5.188 113.936 5.362 113.684 5.554C113.444 5.734 113.216 5.896 113 6.04C112.796 6.172 112.652 6.25 112.568 6.274C112.52 6.298 112.472 6.322 112.424 6.346C112.388 6.358 112.346 6.376 112.298 6.4C112.238 6.436 112.166 6.484 112.082 6.544C112.034 6.58 111.986 6.676 111.938 6.832C111.89 6.976 111.842 7.132 111.794 7.3C111.758 7.456 111.728 7.57 111.704 7.642C111.656 7.774 111.62 7.912 111.596 8.056C111.584 8.2 111.548 8.338 111.488 8.47L111.452 8.65C111.428 8.77 111.398 8.89 111.362 9.01C111.326 9.13 111.296 9.256 111.272 9.388L111.218 9.676V9.694L111.65 9.226C111.758 9.106 111.914 8.932 112.118 8.704C112.322 8.476 112.544 8.23 112.784 7.966C113.024 7.69 113.264 7.432 113.504 7.192C113.756 6.94 113.978 6.73 114.17 6.562C114.362 6.394 114.5 6.304 114.584 6.292C114.608 6.292 114.626 6.292 114.638 6.292C114.65 6.28 114.662 6.274 114.674 6.274C114.878 6.274 115.064 6.322 115.232 6.418C115.4 6.514 115.454 6.628 115.394 6.76C115.322 7.048 115.214 7.348 115.07 7.66C114.938 7.96 114.824 8.26 114.728 8.56C114.632 8.86 114.596 9.166 114.62 9.478C114.632 9.562 114.662 9.706 114.71 9.91C114.77 10.114 114.872 10.216 115.016 10.216C115.136 10.216 115.262 10.156 115.394 10.036C115.538 9.928 115.67 9.802 115.79 9.658C115.922 9.514 116.03 9.394 116.114 9.298C116.174 9.238 116.234 9.178 116.294 9.118C116.354 9.046 116.426 8.98 116.51 8.92L116.528 9.208C116.504 9.256 116.48 9.304 116.456 9.352C116.432 9.4 116.408 9.448 116.384 9.496C116.3 9.628 116.21 9.79 116.114 9.982C116.018 10.174 115.904 10.318 115.772 10.414C115.736 10.438 115.622 10.456 115.43 10.468C115.238 10.492 115.112 10.504 115.052 10.504C114.98 10.504 114.914 10.492 114.854 10.468C114.806 10.444 114.746 10.42 114.674 10.396C114.434 10.3 114.2 10.168 113.972 10C113.756 9.82 113.648 9.598 113.648 9.334C113.648 9.274 113.642 9.214 113.63 9.154C113.63 9.094 113.636 9.028 113.648 8.956C113.648 8.812 113.672 8.638 113.72 8.434C113.756 8.254 113.786 8.074 113.81 7.894C113.846 7.714 113.876 7.534 113.9 7.354L113.882 7.372C113.834 7.42 113.786 7.468 113.738 7.516C113.69 7.564 113.648 7.618 113.612 7.678C113.54 7.774 113.48 7.852 113.432 7.912C113.396 7.96 113.33 8.026 113.234 8.11L113.108 8.218C113.024 8.278 112.952 8.35 112.892 8.434C112.832 8.506 112.772 8.59 112.712 8.686C112.664 8.746 112.616 8.812 112.568 8.884C112.532 8.944 112.484 9.004 112.424 9.064C112.34 9.148 112.256 9.232 112.172 9.316C112.088 9.388 112.016 9.472 111.956 9.568C111.908 9.64 111.842 9.748 111.758 9.892C111.674 10.036 111.584 10.168 111.488 10.288C111.404 10.42 111.32 10.498 111.236 10.522ZM112.19 6.058C113.066 5.53 113.852 4.894 114.548 4.15C115.256 3.394 115.778 2.56 116.114 1.648C116.126 1.612 116.132 1.57 116.132 1.522C116.132 1.486 116.126 1.456 116.114 1.432C116.114 1.396 116.114 1.354 116.114 1.306C116.114 1.306 116.084 1.306 116.024 1.306C116.012 1.306 115.988 1.306 115.952 1.306C115.928 1.306 115.904 1.3 115.88 1.288C115.784 1.336 115.67 1.39 115.538 1.45C115.406 1.51 115.304 1.57 115.232 1.63L115.196 1.684V1.702C115.172 1.726 115.16 1.738 115.16 1.738C115.1 1.798 115.04 1.858 114.98 1.918C114.92 1.966 114.86 2.014 114.8 2.062C114.716 2.11 114.638 2.182 114.566 2.278L114.512 2.35C114.464 2.41 114.41 2.47 114.35 2.53C114.29 2.578 114.23 2.626 114.17 2.674C114.134 2.698 114.056 2.788 113.936 2.944C113.828 3.1 113.72 3.262 113.612 3.43C113.504 3.586 113.432 3.7 113.396 3.772C113.384 3.808 113.372 3.838 113.36 3.862C113.348 3.886 113.324 3.91 113.288 3.934C113.288 3.982 113.276 4.012 113.252 4.024L113.288 4.114H113.198C113.186 4.162 113.15 4.24 113.09 4.348C113.03 4.444 112.976 4.504 112.928 4.528C112.916 4.576 112.856 4.708 112.748 4.924C112.652 5.128 112.55 5.344 112.442 5.572C112.334 5.788 112.25 5.95 112.19 6.058ZM115.374 15.508C115.074 15.508 114.864 15.406 114.744 15.202C114.624 15.01 114.564 14.8 114.564 14.572C114.564 14.332 114.606 14.098 114.69 13.87C114.774 13.642 114.876 13.432 114.996 13.24C115.092 13.072 115.194 12.898 115.302 12.718C115.398 12.538 115.506 12.37 115.626 12.214C115.914 11.818 116.286 11.404 116.742 10.972C117.21 10.552 117.648 10.204 118.056 9.928C118.26 9.796 118.506 9.658 118.794 9.514C119.094 9.358 119.358 9.232 119.586 9.136C119.814 9.028 119.928 8.974 119.928 8.974C120.036 8.938 120.144 8.884 120.252 8.812C120.372 8.752 120.462 8.722 120.522 8.722C120.534 8.71 120.546 8.698 120.558 8.686C120.57 8.674 120.582 8.662 120.594 8.65C120.678 8.554 120.732 8.41 120.756 8.218C120.78 8.026 120.816 7.87 120.864 7.75C120.888 7.69 120.906 7.648 120.918 7.624C120.942 7.588 120.954 7.534 120.954 7.462V7.354C120.954 7.294 120.96 7.24 120.972 7.192C120.984 7.144 120.996 7.096 121.008 7.048C121.02 7.012 121.026 6.934 121.026 6.814C120.942 6.838 120.87 6.886 120.81 6.958C120.762 7.03 120.708 7.096 120.648 7.156C120.54 7.252 120.438 7.36 120.342 7.48C120.258 7.6 120.162 7.708 120.054 7.804C119.886 7.96 119.658 8.176 119.37 8.452C119.082 8.728 118.782 8.974 118.47 9.19C118.158 9.406 117.882 9.514 117.642 9.514C117.486 9.514 117.312 9.454 117.12 9.334C116.928 9.214 116.796 9.094 116.724 8.974V8.938C116.724 8.902 116.718 8.866 116.706 8.83C116.694 8.782 116.688 8.74 116.688 8.704C116.688 8.476 116.742 8.224 116.85 7.948C116.958 7.672 117.084 7.414 117.228 7.174C117.372 6.934 117.504 6.76 117.624 6.652L117.678 6.58C117.726 6.52 117.768 6.466 117.804 6.418C117.852 6.37 117.9 6.322 117.948 6.274C118.044 6.166 118.14 6.076 118.236 6.004C118.344 5.932 118.464 5.896 118.596 5.896C118.644 5.896 118.746 5.926 118.902 5.986C119.058 6.046 119.208 6.112 119.352 6.184C119.496 6.244 119.568 6.298 119.568 6.346C119.58 6.394 119.556 6.418 119.496 6.418H119.442L119.406 6.4C119.394 6.4 119.382 6.4 119.37 6.4C119.358 6.388 119.34 6.382 119.316 6.382C119.196 6.382 119.028 6.484 118.812 6.688C118.608 6.88 118.398 7.126 118.182 7.426C117.966 7.714 117.786 7.996 117.642 8.272C117.498 8.536 117.426 8.74 117.426 8.884C117.426 8.944 117.45 8.974 117.498 8.974C117.618 8.974 117.744 8.932 117.876 8.848C118.02 8.764 118.14 8.692 118.236 8.632H118.272C118.812 8.236 119.292 7.846 119.712 7.462C119.94 7.258 120.168 7.054 120.396 6.85C120.624 6.646 120.852 6.43 121.08 6.202L121.188 6.094L121.296 5.968C121.368 5.884 121.452 5.806 121.548 5.734C121.656 5.758 121.812 5.794 122.016 5.842C122.232 5.89 122.346 5.998 122.358 6.166C122.358 6.226 122.346 6.286 122.322 6.346C122.31 6.394 122.298 6.448 122.286 6.508C122.274 6.628 122.256 6.748 122.232 6.868C122.208 6.988 122.184 7.108 122.16 7.228C122.148 7.3 122.124 7.372 122.088 7.444C122.064 7.516 122.04 7.588 122.016 7.66C121.992 7.744 121.974 7.834 121.962 7.93C121.962 8.026 121.944 8.122 121.908 8.218C121.896 8.254 121.866 8.32 121.818 8.416C121.77 8.5 121.746 8.56 121.746 8.596C121.746 8.608 121.77 8.614 121.818 8.614C121.854 8.614 121.884 8.614 121.908 8.614C121.944 8.602 121.968 8.596 121.98 8.596C122.268 8.596 122.526 8.692 122.754 8.884C122.778 8.896 122.79 8.908 122.79 8.92C122.802 8.92 122.814 8.92 122.826 8.92V8.956C122.826 9.016 122.79 9.064 122.718 9.1C122.646 9.136 122.598 9.112 122.574 9.028C122.562 8.992 122.532 8.974 122.484 8.974C122.436 8.962 122.394 8.956 122.358 8.956C122.238 8.956 122.07 8.998 121.854 9.082C121.65 9.154 121.554 9.262 121.566 9.406C121.506 9.442 121.416 9.544 121.296 9.712C121.188 9.88 121.128 9.994 121.116 10.054C121.104 10.102 121.098 10.15 121.098 10.198C121.098 10.246 121.074 10.294 121.026 10.342C120.978 10.39 120.936 10.438 120.9 10.486C120.876 10.534 120.864 10.606 120.864 10.702C120.792 10.726 120.714 10.792 120.63 10.9C120.546 11.008 120.51 11.098 120.522 11.17L120.468 11.188L120.504 11.26C120.408 11.296 120.36 11.344 120.36 11.404C120.288 11.428 120.228 11.488 120.18 11.584C120.144 11.68 120.09 11.752 120.018 11.8V11.872L119.874 11.944L119.892 11.998C119.844 12.034 119.796 12.07 119.748 12.106C119.712 12.154 119.676 12.202 119.64 12.25C119.592 12.298 119.55 12.34 119.514 12.376C119.49 12.412 119.466 12.442 119.442 12.466V12.538C119.406 12.55 119.388 12.58 119.388 12.628C119.328 12.64 119.274 12.67 119.226 12.718L119.136 12.808L119.154 12.844C119.118 12.868 119.082 12.892 119.046 12.916C119.022 12.94 119.004 12.976 118.992 13.024H118.938C118.902 13.096 118.842 13.168 118.758 13.24C118.686 13.324 118.62 13.396 118.56 13.456L118.254 13.834C118.158 13.918 118.05 13.996 117.93 14.068C117.822 14.14 117.72 14.224 117.624 14.32C117.588 14.344 117.552 14.374 117.516 14.41C117.492 14.446 117.462 14.482 117.426 14.518C117.378 14.566 117.312 14.608 117.228 14.644C117.156 14.692 117.09 14.746 117.03 14.806C116.838 14.938 116.586 15.088 116.274 15.256C115.95 15.424 115.65 15.508 115.374 15.508ZM115.824 14.95C115.884 14.926 115.974 14.884 116.094 14.824C116.214 14.776 116.322 14.722 116.418 14.662C116.526 14.602 116.58 14.554 116.58 14.518C116.736 14.422 116.874 14.308 116.994 14.176C117.126 14.056 117.252 13.936 117.372 13.816C117.504 13.696 117.636 13.576 117.768 13.456C117.9 13.336 118.02 13.21 118.128 13.078C118.2 12.982 118.266 12.886 118.326 12.79C118.398 12.694 118.47 12.604 118.542 12.52C118.638 12.388 118.74 12.256 118.848 12.124C118.968 12.004 119.076 11.878 119.172 11.746C119.28 11.614 119.376 11.47 119.46 11.314C119.556 11.158 119.652 11.008 119.748 10.864C119.808 10.768 119.874 10.666 119.946 10.558C120.03 10.45 120.096 10.342 120.144 10.234C120.168 10.198 120.186 10.156 120.198 10.108C120.222 10.072 120.246 10.03 120.27 9.982C120.318 9.898 120.384 9.772 120.468 9.604C120.564 9.424 120.612 9.292 120.612 9.208C120.468 9.28 120.3 9.352 120.108 9.424C120.012 9.472 119.916 9.52 119.82 9.568C119.736 9.604 119.694 9.634 119.694 9.658C119.634 9.67 119.49 9.73 119.262 9.838C119.046 9.946 118.83 10.06 118.614 10.18C118.398 10.3 118.26 10.39 118.2 10.45C117.972 10.618 117.75 10.798 117.534 10.99C117.33 11.182 117.126 11.374 116.922 11.566C116.874 11.614 116.832 11.662 116.796 11.71C116.76 11.758 116.724 11.812 116.688 11.872C116.676 11.896 116.658 11.914 116.634 11.926C116.622 11.95 116.61 11.974 116.598 11.998C116.574 12.022 116.526 12.088 116.454 12.196C116.382 12.304 116.316 12.412 116.256 12.52C116.196 12.628 116.16 12.7 116.148 12.736C116.04 12.844 115.914 13.024 115.77 13.276C115.626 13.528 115.524 13.732 115.464 13.888L115.338 14.176C115.302 14.224 115.284 14.308 115.284 14.428C115.272 14.548 115.266 14.644 115.266 14.716C115.278 14.824 115.32 14.89 115.392 14.914C115.464 14.95 115.608 14.962 115.824 14.95Z" fill="#3D3D3D"/>
</svg>
