<svg width="45" height="45" viewBox="0 0 45 45" fill="none" xmlns="http://www.w3.org/2000/svg">
<circle cx="22.5" cy="22.5" r="21" fill="#6B14A6" stroke="white" stroke-width="3"/>
<path d="M19.6982 17.4165H16.6835C15.6567 17.4165 15.143 17.4165 14.7508 17.6163C14.4058 17.7921 14.1256 18.0724 13.9498 18.4173C13.75 18.8095 13.75 19.3233 13.75 20.35V25.4834C13.75 26.5101 13.75 27.0228 13.9498 27.4149C14.1256 27.7599 14.4058 28.0411 14.7508 28.2169C15.1426 28.4165 15.6557 28.4165 16.6805 28.4165H27.3195C28.3443 28.4165 28.8567 28.4165 29.2484 28.2169C29.5934 28.0411 29.8746 27.7599 30.0504 27.4149C30.25 27.0232 30.25 26.5108 30.25 25.486V20.347C30.25 19.3222 30.25 18.8091 30.0504 18.4173C29.8746 18.0724 29.5934 17.7921 29.2484 17.6163C28.8563 17.4165 28.3436 17.4165 27.3168 17.4165H24.3016M19.6982 17.4165H19.7549M19.6982 17.4165C19.7097 17.4165 19.7218 17.4165 19.7345 17.4165L19.7549 17.4165M19.6982 17.4165C19.601 17.4165 19.5464 17.416 19.5033 17.4111C18.9647 17.3508 18.5953 16.8382 18.7084 16.3081C18.7189 16.2588 18.7397 16.1964 18.7809 16.0728L18.7827 16.0675C18.8298 15.9264 18.8533 15.8558 18.8793 15.7935C19.1454 15.1559 19.748 14.7223 20.437 14.6715C20.5043 14.6665 20.5783 14.6665 20.7271 14.6665H23.2729C23.4217 14.6665 23.4962 14.6665 23.5635 14.6715C24.2526 14.7223 24.8545 15.1559 25.1206 15.7935C25.1466 15.8558 25.1702 15.9263 25.2173 16.0675C25.2597 16.1946 25.2809 16.2582 25.2915 16.3082C25.4046 16.8382 25.0358 17.3508 24.4972 17.4111C24.4541 17.416 24.399 17.4165 24.3016 17.4165M19.7549 17.4165H24.2449M24.2449 17.4165H24.3016M24.2449 17.4165L24.2653 17.4165C24.278 17.4165 24.2901 17.4165 24.3016 17.4165M22 25.6665C20.4812 25.6665 19.25 24.4353 19.25 22.9165C19.25 21.3977 20.4812 20.1665 22 20.1665C23.5188 20.1665 24.75 21.3977 24.75 22.9165C24.75 24.4353 23.5188 25.6665 22 25.6665Z" stroke="white" stroke-width="2" stroke-linecap="round" stroke-linejoin="round"/>
</svg>
