<svg width="20" height="20" viewBox="0 0 20 20" fill="none" xmlns="http://www.w3.org/2000/svg">
<g id="Media / Image_01">
<path id="Vector" d="M2.50004 14.1668C2.5 14.113 2.5 14.0575 2.5 14.0002V6.0002C2.5 5.06678 2.5 4.59972 2.68166 4.2432C2.84144 3.9296 3.09623 3.67482 3.40983 3.51503C3.76635 3.33337 4.23341 3.33337 5.16683 3.33337H14.8335C15.7669 3.33337 16.2334 3.33337 16.5899 3.51503C16.9035 3.67482 17.1587 3.9296 17.3185 4.2432C17.5 4.59938 17.5 5.06587 17.5 5.99747V14.0026C17.5 14.4068 17.5 14.7233 17.4852 14.9812M2.50004 14.1668C2.50068 14.9904 2.51114 15.4216 2.68166 15.7562C2.84144 16.0698 3.09623 16.3254 3.40983 16.4852C3.766 16.6667 4.23249 16.6667 5.16409 16.6667H14.8363C15.7679 16.6667 16.2337 16.6667 16.5899 16.4852C16.9035 16.3254 17.1587 16.0698 17.3185 15.7562C17.4213 15.5546 17.4658 15.3178 17.4852 14.9812M2.50004 14.1668L6.47331 9.53129L6.47449 9.53001C6.82689 9.11887 7.00338 8.91296 7.21273 8.83874C7.39662 8.77355 7.59739 8.77507 7.78035 8.84281C7.98886 8.92001 8.16255 9.12827 8.50993 9.54513L10.7359 12.2163C11.0575 12.6022 11.2192 12.7962 11.4155 12.8741C11.5887 12.9428 11.7797 12.9505 11.9584 12.8978C12.1618 12.8378 12.3409 12.6587 12.699 12.3007L13.1132 11.8864C13.4778 11.5219 13.6601 11.3397 13.8664 11.2802C14.0476 11.2279 14.2414 11.2391 14.4157 11.3111C14.6142 11.393 14.7752 11.5937 15.0972 11.9963L17.4852 14.9812M17.4852 14.9812L17.5 14.9997M12.5 8.33337C12.0398 8.33337 11.6667 7.96028 11.6667 7.50004C11.6667 7.0398 12.0398 6.66671 12.5 6.66671C12.9602 6.66671 13.3333 7.0398 13.3333 7.50004C13.3333 7.96028 12.9602 8.33337 12.5 8.33337Z" stroke="#5F5F5F" stroke-width="1.7" stroke-linecap="round" stroke-linejoin="round"/>
</g>
</svg>
