<svg width="47" height="48" viewBox="0 0 47 48" fill="none" xmlns="http://www.w3.org/2000/svg">
<rect x="29.6872" y="0.767354" width="12.5349" height="45.2653" rx="2.84884" transform="rotate(27.2358 29.6872 0.767354)" fill="white" stroke="#8A8A8A" stroke-width="1.13953"/>
<rect x="6.46468" y="7.87438" width="12.5349" height="45.2653" rx="2.84884" transform="rotate(-31.9592 6.46468 7.87438)" fill="white" stroke="#8A8A8A" stroke-width="1.13953"/>
<rect x="1.12836" y="30.0265" width="12.5349" height="45.2653" rx="2.84884" transform="rotate(-90 1.12836 30.0265)" fill="white" stroke="#8A8A8A" stroke-width="1.13953"/>
<rect x="7.63422" y="7.40693" width="33.0465" height="33.0465" rx="16.5233" fill="white" stroke="#8A8A8A" stroke-width="1.13953"/>
<path d="M19.3715 24.621C19.0676 24.621 18.8093 24.5222 18.5966 24.3247C18.3991 24.112 18.3003 23.8461 18.3003 23.527C18.3003 23.2232 18.3991 22.9801 18.5966 22.7977C18.8093 22.6002 19.0676 22.5014 19.3715 22.5014H28.6929C28.9967 22.5014 29.2474 22.6002 29.445 22.7977C29.6577 22.9952 29.764 23.2535 29.764 23.5726C29.764 23.8613 29.6577 24.112 29.445 24.3247C29.2474 24.5222 28.9967 24.621 28.6929 24.621H19.3715ZM23.998 29.2247C23.6485 29.2247 23.3523 29.1108 23.1091 28.8828C22.8812 28.6549 22.7673 28.3587 22.7673 27.994V18.8549C22.7673 18.5055 22.8888 18.2168 23.1319 17.9889C23.375 17.761 23.6713 17.647 24.0208 17.647C24.3854 17.647 24.6741 17.761 24.8868 17.9889C25.1147 18.2168 25.2287 18.5055 25.2287 18.8549V27.994C25.2287 28.3587 25.1147 28.6549 24.8868 28.8828C24.6589 29.1108 24.3626 29.2247 23.998 29.2247Z" fill="#5C148C"/>
</svg>
