<svg width="52" height="46" viewBox="0 0 52 46" fill="none" xmlns="http://www.w3.org/2000/svg">
<rect x="5.12836" y="0.988347" width="12.5349" height="44.4419" rx="2.84884" fill="white" stroke="#8A8A8A" stroke-width="1.13953"/>
<rect x="19.9428" y="0.988347" width="12.5349" height="44.4419" rx="2.84884" fill="white" stroke="#8A8A8A" stroke-width="1.13953"/>
<rect x="34.7553" y="0.988347" width="12.5349" height="44.4419" rx="2.84884" fill="white" stroke="#8A8A8A" stroke-width="1.13953"/>
<rect x="0.569767" y="6.68604" width="50.1395" height="33.0465" rx="2.84884" fill="white" stroke="#8A8A8A" stroke-width="1.13953"/>
<path d="M21.4242 23.9C21.1203 23.9 20.862 23.8013 20.6493 23.6038C20.4518 23.391 20.353 23.1252 20.353 22.8061C20.353 22.5022 20.4518 22.2591 20.6493 22.0768C20.862 21.8793 21.1203 21.7805 21.4242 21.7805H30.7456C31.0495 21.7805 31.3002 21.8793 31.4977 22.0768C31.7104 22.2743 31.8168 22.5326 31.8168 22.8517C31.8168 23.1403 31.7104 23.391 31.4977 23.6038C31.3002 23.8013 31.0495 23.9 30.7456 23.9H21.4242ZM26.0507 28.5038C25.7013 28.5038 25.405 28.3898 25.1619 28.1619C24.934 27.934 24.82 27.6377 24.82 27.2731V18.134C24.82 17.7845 24.9416 17.4959 25.1847 17.2679C25.4278 17.04 25.7241 16.9261 26.0735 16.9261C26.4382 16.9261 26.7268 17.04 26.9396 17.2679C27.1675 17.4959 27.2814 17.7845 27.2814 18.134V27.2731C27.2814 27.6377 27.1675 27.934 26.9396 28.1619C26.7117 28.3898 26.4154 28.5038 26.0507 28.5038Z" fill="#5C148C"/>
</svg>
