<svg width="47" height="46" viewBox="0 0 47 46" fill="none" xmlns="http://www.w3.org/2000/svg">
<rect x="10.0795" y="0.988469" width="12.5349" height="44.4419" rx="2.84884" fill="white" stroke="#8A8A8A" stroke-width="1.13953"/>
<rect x="24.892" y="0.988469" width="12.5349" height="44.4419" rx="2.84884" fill="white" stroke="#8A8A8A" stroke-width="1.13953"/>
<rect x="1.53266" y="36.8838" width="12.5349" height="44.4419" rx="2.84884" transform="rotate(-90 1.53266 36.8838)" fill="white" stroke="#8A8A8A" stroke-width="1.13953"/>
<rect x="1.53266" y="22.0698" width="12.5349" height="44.4419" rx="2.84884" transform="rotate(-90 1.53266 22.0698)" fill="white" stroke="#8A8A8A" stroke-width="1.13953"/>
<rect x="6.65961" y="6.6861" width="33.0465" height="33.0465" rx="2.84884" fill="white" stroke="#8A8A8A" stroke-width="1.13953"/>
<path d="M18.3969 23.9C18.093 23.9 17.8347 23.8013 17.622 23.6038C17.4245 23.391 17.3257 23.1252 17.3257 22.8061C17.3257 22.5022 17.4245 22.2591 17.622 22.0768C17.8347 21.8793 18.093 21.7805 18.3969 21.7805H27.7183C28.0221 21.7805 28.2728 21.8793 28.4704 22.0768C28.6831 22.2743 28.7894 22.5326 28.7894 22.8517C28.7894 23.1403 28.6831 23.391 28.4704 23.6038C28.2728 23.8013 28.0221 23.9 27.7183 23.9H18.3969ZM23.0234 28.5038C22.6739 28.5038 22.3776 28.3898 22.1345 28.1619C21.9066 27.934 21.7927 27.6377 21.7927 27.2731V18.134C21.7927 17.7845 21.9142 17.4959 22.1573 17.2679C22.4004 17.04 22.6967 16.9261 23.0462 16.9261C23.4108 16.9261 23.6995 17.04 23.9122 17.2679C24.1401 17.4959 24.2541 17.7845 24.2541 18.134V27.2731C24.2541 27.6377 24.1401 27.934 23.9122 28.1619C23.6843 28.3898 23.388 28.5038 23.0234 28.5038Z" fill="#5C148C"/>
</svg>
