<svg width="52" height="41" viewBox="0 0 52 41" fill="none" xmlns="http://www.w3.org/2000/svg">
<rect x="5.40766" y="0.988347" width="12.5349" height="38.7442" rx="2.84884" fill="white" stroke="#8A8A8A" stroke-width="1.13953"/>
<rect x="20.2202" y="0.988347" width="12.5349" height="38.7442" rx="2.84884" fill="white" stroke="#8A8A8A" stroke-width="1.13953"/>
<rect x="35.0346" y="0.988347" width="12.5349" height="38.7442" rx="2.84884" fill="white" stroke="#8A8A8A" stroke-width="1.13953"/>
<rect x="0.849064" y="6.68604" width="50.1395" height="33.0465" rx="2.84884" fill="white" stroke="#8A8A8A" stroke-width="1.13953"/>
<path d="M21.7016 23.9C21.3977 23.9 21.1394 23.8013 20.9267 23.6038C20.7292 23.391 20.6304 23.1252 20.6304 22.8061C20.6304 22.5022 20.7292 22.2591 20.9267 22.0768C21.1394 21.8793 21.3977 21.7805 21.7016 21.7805H31.0229C31.3268 21.7805 31.5775 21.8793 31.775 22.0768C31.9878 22.2743 32.0941 22.5326 32.0941 22.8517C32.0941 23.1403 31.9878 23.391 31.775 23.6038C31.5775 23.8013 31.3268 23.9 31.0229 23.9H21.7016ZM26.3281 28.5038C25.9786 28.5038 25.6823 28.3898 25.4392 28.1619C25.2113 27.934 25.0974 27.6377 25.0974 27.2731V18.134C25.0974 17.7845 25.2189 17.4959 25.462 17.2679C25.7051 17.04 26.0014 16.9261 26.3509 16.9261C26.7155 16.9261 27.0042 17.04 27.2169 17.2679C27.4448 17.4959 27.5588 17.7845 27.5588 18.134V27.2731C27.5588 27.6377 27.4448 27.934 27.2169 28.1619C26.989 28.3898 26.6927 28.5038 26.3281 28.5038Z" fill="#5C148C"/>
</svg>
